<svg width="32" height="32" viewBox="0 0 32 32" fill="none" xmlns="http://www.w3.org/2000/svg">
<g clip-path="url(#clip0_701_48)">
<path d="M12.5464 5.73572C14.1608 5.79286 15.4286 5.82143 16.35 5.82143C17.2215 5.82143 18.4643 5.79286 20.0786 5.73572C20.1072 5.85 20.1214 5.92859 20.1214 5.97142C20.1214 6.05 20.1072 6.13928 20.0786 6.23926C19.75 6.26783 19.4822 6.30001 19.275 6.33572C19.0679 6.36429 18.8143 6.41426 18.5143 6.48571C18.2143 6.55716 17.9858 6.6607 17.8286 6.79643C17.6714 6.92497 17.5929 7.08214 17.5929 7.26783C17.5858 7.73215 17.575 8.82143 17.5608 10.5357C17.5536 12.25 17.5429 13.8536 17.5286 15.3464C17.5143 16.5393 17.4929 17.5178 17.4643 18.2821C17.4429 19.0393 17.3929 19.8821 17.3143 20.8107C17.2429 21.7322 17.1393 22.4714 17.0036 23.0286C16.875 23.5929 16.6964 24.1679 16.4679 24.7535C16.2393 25.3464 15.9608 25.8 15.6322 26.1143C15.3107 26.4286 14.9143 26.6857 14.4429 26.8857C13.9715 27.0857 13.4286 27.1857 12.8143 27.1857C11.7786 27.1857 10.975 26.9322 10.4036 26.425C9.83216 25.9178 9.54645 25.3178 9.54645 24.625C9.54645 24.0321 9.70361 23.5714 10.0179 23.2429C10.3322 22.9214 10.7464 22.7607 11.2607 22.7607C11.6822 22.7607 12.0429 22.875 12.3429 23.1036C12.6429 23.3322 12.7929 23.6714 12.7929 24.1214C12.7929 24.3643 12.7322 24.5786 12.6107 24.7643C12.4893 24.9572 12.3536 25.0964 12.2036 25.1821C12.0607 25.275 11.9286 25.3572 11.8072 25.4286C11.6857 25.5071 11.625 25.5607 11.625 25.5893C11.625 25.8607 11.7286 26.0821 11.9358 26.2536C12.15 26.425 12.4429 26.5107 12.8143 26.5107C13.2143 26.5107 13.55 26.4357 13.8215 26.2857C14.1 26.1357 14.325 25.925 14.4964 25.6536C14.675 25.3821 14.8107 25.0036 14.9036 24.5178C14.9965 24.0321 15.0572 23.5143 15.0857 22.9643C15.1214 22.4143 15.1393 21.725 15.1393 20.8964C15.1393 13.8393 15.1036 9.2964 15.0322 7.26783C15.025 7.08214 14.9429 6.92497 14.7858 6.79643C14.6286 6.6607 14.4 6.55716 14.1 6.48571C13.8 6.41426 13.5464 6.36429 13.3393 6.33572C13.1393 6.30001 12.875 6.26783 12.5464 6.23926C12.5179 6.11071 12.5036 6.02143 12.5036 5.97142C12.5036 5.89997 12.5179 5.82143 12.5464 5.73572Z" fill="#D5AB60"/>
<path d="M12.5464 5.73571L12.5481 5.69L12.5139 5.68881L12.5031 5.72127L12.5464 5.73571ZM20.0786 5.73571L20.123 5.72461L20.114 5.68872L20.077 5.69L20.0786 5.73571ZM20.0786 6.23926L20.0825 6.28483L20.1139 6.28209L20.1225 6.25183L20.0786 6.23926ZM19.275 6.33571L19.2813 6.38102L19.2828 6.38074L19.275 6.33571ZM17.8286 6.79642L17.8575 6.83181L17.8585 6.83103L17.8286 6.79642ZM17.5929 7.26783L17.6386 7.26856V7.26783H17.5929ZM17.5608 10.5357L17.515 10.5353V10.5355L17.5608 10.5357ZM17.5286 15.3464L17.5743 15.347V15.3469L17.5286 15.3464ZM17.4643 18.2821L17.4186 18.2804V18.2809L17.4643 18.2821ZM17.3143 20.8107L17.2688 20.8068L17.2687 20.8072L17.3143 20.8107ZM17.0036 23.0286L16.9592 23.0177L16.959 23.0184L17.0036 23.0286ZM16.4679 24.7535L16.4253 24.7369L16.4252 24.7371L16.4679 24.7535ZM15.6322 26.1143L15.6006 26.0812L15.6002 26.0816L15.6322 26.1143ZM10.0179 23.2429L9.98521 23.2109L9.98485 23.2112L10.0179 23.2429ZM12.6107 24.7643L12.5725 24.7392L12.572 24.7399L12.6107 24.7643ZM12.2036 25.1821L12.1809 25.1424L12.1787 25.1438L12.2036 25.1821ZM11.8072 25.4286L11.784 25.3891L11.7823 25.3902L11.8072 25.4286ZM11.9357 26.2536L11.9066 26.2888L11.9072 26.2893L11.9357 26.2536ZM13.8215 26.2857L13.7998 26.2454L13.7993 26.2457L13.8215 26.2857ZM14.4964 25.6536L14.4583 25.6284L14.4578 25.6292L14.4964 25.6536ZM15.0857 22.9643L15.0401 22.9613L15.0401 22.9619L15.0857 22.9643ZM15.0322 7.26783L15.0779 7.26623L15.0778 7.26609L15.0322 7.26783ZM14.7858 6.79642L14.7559 6.83103L14.7568 6.83181L14.7858 6.79642ZM13.3393 6.33571L13.3313 6.38074L13.3331 6.38097L13.3393 6.33571ZM12.5464 6.23926L12.5018 6.24918L12.5091 6.28191L12.5425 6.28483L12.5464 6.23926ZM12.5448 5.78138C14.1593 5.83853 15.4278 5.86714 16.35 5.86714V5.77571C15.4294 5.77571 14.1622 5.74714 12.5481 5.69L12.5448 5.78138ZM16.35 5.86714C17.2223 5.86714 18.4658 5.83853 20.0802 5.78138L20.077 5.69C18.4629 5.74714 17.2206 5.77571 16.35 5.77571V5.86714ZM20.0343 5.74678C20.063 5.86166 20.0757 5.93498 20.0757 5.97142H20.1672C20.1672 5.92214 20.1514 5.8383 20.123 5.72461L20.0343 5.74678ZM20.0757 5.97142C20.0757 6.04461 20.0624 6.12954 20.0346 6.22673L20.1225 6.25183C20.1519 6.14897 20.1672 6.05535 20.1672 5.97142H20.0757ZM20.0746 6.19373C19.7454 6.22234 19.4761 6.25462 19.2673 6.29064L19.2828 6.38074C19.4882 6.34536 19.7546 6.31331 20.0825 6.28483L20.0746 6.19373ZM19.2688 6.29041C19.0597 6.31926 18.8045 6.36959 18.5037 6.44122L18.5249 6.53018C18.8241 6.45896 19.0761 6.40927 19.2813 6.38097L19.2688 6.29041ZM18.5037 6.44122C18.1998 6.51359 17.9635 6.61955 17.7987 6.76182L17.8585 6.83103C18.008 6.70184 18.2288 6.60067 18.5249 6.53018L18.5037 6.44122ZM17.7997 6.76104C17.633 6.89736 17.5472 7.06701 17.5472 7.26783H17.6386C17.6386 7.09722 17.7099 6.95263 17.8575 6.83181L17.7997 6.76104ZM17.5472 7.26714C17.54 7.73165 17.5293 8.82111 17.515 10.5353L17.6065 10.5361C17.6207 8.82175 17.6314 7.73265 17.6386 7.26856L17.5472 7.26714ZM17.515 10.5355C17.5079 12.2497 17.4972 13.8532 17.4829 15.346L17.5743 15.3469C17.5886 13.8539 17.5993 12.2502 17.6065 10.5359L17.515 10.5355ZM17.4829 15.3459C17.4686 16.5385 17.4472 17.5167 17.4186 18.2804L17.51 18.2838C17.5386 17.519 17.56 16.54 17.5743 15.347L17.4829 15.3459ZM17.4186 18.2809C17.3972 19.037 17.3473 19.8789 17.2688 20.8068L17.3598 20.8146C17.4385 19.8853 17.4885 19.0416 17.51 18.2834L17.4186 18.2809ZM17.2687 20.8072C17.1974 21.7274 17.0941 22.464 16.9592 23.0177L17.048 23.0394C17.1846 22.4788 17.2884 21.7368 17.3599 20.8143L17.2687 20.8072ZM16.959 23.0184C16.831 23.5803 16.6531 24.1531 16.4253 24.7369L16.5105 24.7702C16.7398 24.1825 16.9191 23.6054 17.0482 23.0387L16.959 23.0184ZM16.4252 24.7371C16.1982 25.326 15.9228 25.7731 15.6006 26.0812L15.6637 26.1473C15.9987 25.8269 16.2804 25.3668 16.5105 24.77L16.4252 24.7371ZM15.6002 26.0816C15.2834 26.3914 14.892 26.6455 14.425 26.8436L14.4607 26.9278C14.9367 26.7259 15.3381 26.4657 15.6641 26.147L15.6002 26.0816ZM14.425 26.8436C13.9603 27.0408 13.4237 27.14 12.8143 27.14V27.2314C13.4335 27.2314 13.9827 27.1306 14.4607 26.9278L14.425 26.8436ZM12.8143 27.14C11.7858 27.14 10.9944 26.8882 10.4339 26.3908L10.3732 26.4592C10.9556 26.976 11.7714 27.2314 12.8143 27.2314V27.14ZM10.4339 26.3908C9.87115 25.8913 9.59216 25.3033 9.59216 24.625H9.50073C9.50073 25.3323 9.79317 25.9444 10.3732 26.4592L10.4339 26.3908ZM9.59216 24.625C9.59216 24.0402 9.74699 23.5922 10.0509 23.2745L9.98485 23.2112C9.66018 23.5507 9.50073 24.0241 9.50073 24.625H9.59216ZM10.0506 23.2748C10.355 22.9635 10.7568 22.8064 11.2607 22.8064V22.715C10.7361 22.715 10.3093 22.8793 9.98521 23.2109L10.0506 23.2748ZM11.2607 22.8064C11.6734 22.8064 12.0241 22.9181 12.3152 23.1399L12.3706 23.0672C12.0617 22.8319 11.6909 22.715 11.2607 22.715V22.8064ZM12.3152 23.1399C12.6016 23.3581 12.7472 23.6826 12.7472 24.1214H12.8386C12.8386 23.6602 12.6842 23.3061 12.3706 23.0672L12.3152 23.1399ZM12.7472 24.1214C12.7472 24.3562 12.6886 24.5617 12.5725 24.7393L12.649 24.7893C12.7757 24.5955 12.8386 24.3723 12.8386 24.1214H12.7472ZM12.572 24.7399C12.4534 24.9284 12.3227 25.0614 12.1809 25.1424L12.2263 25.2218C12.3845 25.1314 12.5252 24.9859 12.6494 24.7887L12.572 24.7399ZM12.1787 25.1438C12.0363 25.2364 11.9047 25.3181 11.784 25.3892L11.8303 25.468C11.9525 25.3961 12.0852 25.3136 12.2285 25.2205L12.1787 25.1438ZM11.7823 25.3902C11.7209 25.4299 11.6732 25.4644 11.6403 25.4934C11.6239 25.5078 11.6099 25.5221 11.5997 25.536C11.5903 25.5487 11.5793 25.5673 11.5793 25.5893H11.6707C11.6707 25.597 11.6674 25.5982 11.6732 25.5903C11.6781 25.5837 11.6868 25.5743 11.7008 25.562C11.7286 25.5374 11.772 25.5058 11.832 25.467L11.7823 25.3902ZM11.5793 25.5893C11.5793 25.8742 11.6888 26.1086 11.9066 26.2888L11.9649 26.2183C11.7683 26.0557 11.6707 25.8472 11.6707 25.5893H11.5793ZM11.9072 26.2893C12.132 26.4692 12.4361 26.5564 12.8143 26.5564V26.465C12.4496 26.465 12.168 26.3808 11.9643 26.2179L11.9072 26.2893ZM12.8143 26.5564C13.2199 26.5564 13.5637 26.4804 13.8435 26.3257L13.7993 26.2457C13.5363 26.391 13.2088 26.465 12.8143 26.465V26.5564ZM13.8431 26.3259C14.1287 26.1722 14.3595 25.956 14.5351 25.678L14.4578 25.6292C14.2905 25.894 14.0713 26.0992 13.7998 26.2455L13.8431 26.3259ZM14.5347 25.6787C14.7178 25.4003 14.8551 25.0153 14.9485 24.5264L14.8587 24.5092C14.7664 24.9919 14.6323 25.3639 14.4583 25.6284L14.5347 25.6787ZM14.9485 24.5264C15.0418 24.0384 15.1027 23.5185 15.1314 22.9667L15.0401 22.9619C15.0116 23.5101 14.9511 24.0258 14.8587 24.5092L14.9485 24.5264ZM15.1314 22.9673C15.1672 22.4159 15.185 21.7255 15.185 20.8964H15.0936C15.0936 21.7244 15.0757 22.4127 15.0401 22.9613L15.1314 22.9673ZM15.185 20.8964C15.185 13.8395 15.1493 9.29576 15.0779 7.26623L14.9865 7.26948C15.0579 9.29704 15.0936 13.8391 15.0936 20.8964H15.185ZM15.0778 7.26609C15.0701 7.066 14.9809 6.89704 14.8147 6.76104L14.7568 6.83181C14.9048 6.95295 14.9799 7.09827 14.9865 7.26961L15.0778 7.26609ZM14.8156 6.76182C14.6509 6.61955 14.4146 6.51359 14.1106 6.44122L14.0894 6.53018C14.3855 6.60067 14.6063 6.70184 14.7559 6.83103L14.8156 6.76182ZM14.1106 6.44122C13.8098 6.36959 13.5547 6.31926 13.3456 6.29041L13.3331 6.38097C13.5382 6.40927 13.7903 6.45896 14.0894 6.53018L14.1106 6.44122ZM13.3474 6.29069C13.1454 6.25466 12.8796 6.22234 12.5504 6.19373L12.5425 6.28483C12.8704 6.31331 13.1332 6.34531 13.3313 6.3807L13.3474 6.29069ZM12.5911 6.22934C12.5624 6.10042 12.5493 6.01576 12.5493 5.97142H12.4579C12.4579 6.0271 12.4733 6.12099 12.5018 6.24918L12.5911 6.22934ZM12.5493 5.97142C12.5493 5.906 12.5624 5.8324 12.5898 5.75016L12.5031 5.72127C12.4733 5.81046 12.4579 5.89398 12.4579 5.97142H12.5493Z" fill="#B39558"/>
<path d="M18.4082 19.7047C18.0754 19.5767 17.7609 19.5127 17.4647 19.5127C17.1721 19.5127 16.9436 19.5749 16.779 19.6992C16.6144 19.8235 16.5321 19.9954 16.5321 20.2149C16.5321 20.4818 16.6711 20.6885 16.949 20.8347C17.0734 20.8969 17.2087 20.9554 17.355 21.0103C17.5049 21.0615 17.6549 21.12 17.8048 21.1858C17.9548 21.2517 18.0919 21.3266 18.2162 21.4107C18.3406 21.4949 18.4412 21.6119 18.518 21.7618C18.5948 21.9081 18.6332 22.0965 18.6332 22.3269C18.6332 22.5536 18.5692 22.7474 18.4412 22.9083C18.3132 23.0693 18.1577 23.179 17.9749 23.2375C17.7957 23.2923 17.5854 23.3198 17.344 23.3198C16.8942 23.3198 16.5102 23.2082 16.192 22.9851L16.2194 22.9413C16.3401 23.0363 16.4956 23.115 16.6857 23.1771C16.8796 23.2357 17.077 23.2649 17.2782 23.2649C17.5744 23.2649 17.8268 23.1973 18.0352 23.0619C18.2473 22.923 18.3534 22.72 18.3534 22.453C18.3534 22.1605 18.2144 21.9319 17.9365 21.7673C17.8121 21.6942 17.675 21.6265 17.525 21.5643C17.3788 21.5022 17.2306 21.4382 17.0807 21.3723C16.9308 21.3029 16.7936 21.2261 16.6693 21.1419C16.3913 20.9591 16.2524 20.6994 16.2524 20.363C16.2524 20.096 16.342 19.8802 16.5212 19.7157C16.7004 19.5474 16.9692 19.4633 17.3276 19.4633C17.6896 19.4633 18.0572 19.5255 18.4302 19.6498L18.4082 19.7047ZM19.0152 20.6153V20.5714H19.1304V20.0229H19.5144V20.5714H20.3538V20.6153H19.5144V22.6121C19.5144 22.8498 19.54 23.0217 19.5912 23.1278C19.6461 23.2338 19.7576 23.2869 19.9259 23.2869C20.0978 23.2869 20.2715 23.2521 20.447 23.1826L20.4635 23.2265C20.2806 23.296 20.0703 23.3307 19.8326 23.3307C19.5986 23.3307 19.423 23.2832 19.306 23.1881C19.189 23.0894 19.1304 22.8955 19.1304 22.6066V20.6153H19.0152ZM21.9017 23.3362C21.5177 23.3362 21.205 23.2265 20.9636 23.0071C20.7223 22.7877 20.6016 22.4494 20.6016 21.9922C20.6016 21.5351 20.7259 21.1803 20.9746 20.928C21.2269 20.6757 21.5451 20.5495 21.9291 20.5495C22.3168 20.5495 22.6313 20.6592 22.8727 20.8786C23.114 21.0981 23.2347 21.4363 23.2347 21.8935C23.2347 22.3506 23.1085 22.7054 22.8562 22.9577C22.6075 23.2101 22.2893 23.3362 21.9017 23.3362ZM21.9401 20.5934C21.6621 20.5934 21.4317 20.7177 21.2489 20.9664C21.066 21.2114 20.9746 21.5552 20.9746 21.9977C20.9746 22.4366 21.0587 22.7621 21.2269 22.9742C21.3952 23.1863 21.6183 23.2923 21.8962 23.2923C22.1741 23.2923 22.4045 23.1698 22.5874 22.9248C22.7703 22.6761 22.8617 22.3323 22.8617 21.8935C22.8617 21.451 22.7776 21.1237 22.6093 20.9115C22.4411 20.6994 22.218 20.5934 21.9401 20.5934ZM24.6119 20.8073V20.6921C24.4473 20.7579 24.2973 20.8914 24.162 21.0926C24.0267 21.2901 23.9554 21.4766 23.9481 21.6521V23.3143H23.5641V20.5714H23.9481V21.4437C24.0066 21.2315 24.1181 21.0322 24.2827 20.8457C24.4473 20.6555 24.6338 20.5568 24.8423 20.5495H24.8642C24.9373 20.5495 24.9977 20.5751 25.0452 20.6263C25.0964 20.6738 25.122 20.7342 25.122 20.8073C25.122 20.8805 25.0964 20.9408 25.0452 20.9883C24.9977 21.0359 24.9373 21.0597 24.8642 21.0597C24.7911 21.0597 24.7307 21.0359 24.6832 20.9883C24.6356 20.9408 24.6119 20.8805 24.6119 20.8073ZM25.7425 21.9758C25.7425 22.4293 25.8211 22.7621 25.9783 22.9742C26.1393 23.1863 26.3495 23.2923 26.6092 23.2923C26.9749 23.2923 27.3004 23.2375 27.5857 23.1278L27.6021 23.1662C27.3095 23.2795 26.9786 23.3362 26.6092 23.3362C26.2435 23.3362 25.9454 23.2265 25.715 23.0071C25.4846 22.7877 25.3694 22.4494 25.3694 21.9922C25.3694 21.5351 25.4901 21.1803 25.7315 20.928C25.9729 20.6757 26.2801 20.5495 26.6531 20.5495C26.953 20.5495 27.2053 20.6391 27.4101 20.8183C27.6149 20.9975 27.7173 21.2626 27.7173 21.6137C27.7173 21.632 27.7173 21.6503 27.7173 21.6686H25.7589C25.7479 21.7673 25.7425 21.8697 25.7425 21.9758ZM27.3443 21.6247C27.3406 21.2736 27.273 21.0139 27.1413 20.8457C27.0097 20.6775 26.8396 20.5934 26.6311 20.5934C26.4227 20.5934 26.2362 20.6848 26.0716 20.8677C25.9107 21.0505 25.8083 21.3029 25.7644 21.6247H27.3443Z" fill="#D5AB60"/>
<path d="M18.4082 19.7047L18.3918 19.7473L18.4339 19.7636L18.4507 19.7216L18.4082 19.7047ZM16.779 19.6992L16.7514 19.6627L16.779 19.6992ZM16.949 20.8347L16.9277 20.8752L16.9286 20.8756L16.949 20.8347ZM17.355 21.0103L17.3389 21.0531L17.3402 21.0535L17.355 21.0103ZM17.8048 21.1858L17.8232 21.144L17.8048 21.1858ZM18.518 21.7618L18.4773 21.7827L18.4775 21.7831L18.518 21.7618ZM18.4412 22.9083L18.4769 22.9368L18.4412 22.9083ZM17.9749 23.2375L17.9883 23.2812L17.9888 23.281L17.9749 23.2375ZM16.192 22.9851L16.1532 22.9609L16.1302 22.9977L16.1658 23.0226L16.192 22.9851ZM16.2194 22.9413L16.2477 22.9054L16.2077 22.8738L16.1807 22.917L16.2194 22.9413ZM16.6857 23.1771L16.6715 23.2206L16.6725 23.2209L16.6857 23.1771ZM18.0352 23.0619L18.0601 23.1003L18.0603 23.1002L18.0352 23.0619ZM17.9365 21.7673L17.9597 21.728L17.9596 21.7279L17.9365 21.7673ZM17.525 21.5643L17.5072 21.6064L17.5075 21.6066L17.525 21.5643ZM17.0807 21.3723L17.0614 21.4138L17.0623 21.4142L17.0807 21.3723ZM16.6693 21.1419L16.6949 21.1041L16.6944 21.1038L16.6693 21.1419ZM16.5212 19.7157L16.5521 19.7493L16.5524 19.749L16.5212 19.7157ZM18.4302 19.6498L18.4726 19.6668L18.4906 19.6218L18.4446 19.6064L18.4302 19.6498ZM18.4246 19.662C18.0876 19.5324 17.7676 19.467 17.4647 19.467V19.5584C17.7543 19.5584 18.0632 19.621 18.3918 19.7473L18.4246 19.662ZM17.4647 19.467C17.1662 19.467 16.9266 19.5303 16.7514 19.6627L16.8065 19.7357C16.9605 19.6194 17.178 19.5584 17.4647 19.5584V19.467ZM16.7514 19.6627C16.5746 19.7963 16.4864 19.9822 16.4864 20.2149H16.5778C16.5778 20.0087 16.6542 19.8507 16.8065 19.7357L16.7514 19.6627ZM16.4864 20.2149C16.4864 20.5021 16.638 20.7227 16.9277 20.8752L16.9703 20.7943C16.7042 20.6542 16.5778 20.4615 16.5778 20.2149H16.4864ZM16.9286 20.8756C17.0545 20.9386 17.1913 20.9978 17.3389 21.0531L17.371 20.9675C17.2261 20.9131 17.0922 20.8552 16.9695 20.7939L16.9286 20.8756ZM17.3402 21.0535C17.4889 21.1043 17.6376 21.1624 17.7864 21.2277L17.8232 21.144C17.6721 21.0776 17.521 21.0187 17.3697 20.967L17.3402 21.0535ZM17.7864 21.2277C17.9341 21.2925 18.0688 21.3662 18.1906 21.4486L18.2418 21.3729C18.115 21.2871 17.9754 21.2108 17.8232 21.144L17.7864 21.2277ZM18.1906 21.4486C18.3078 21.5279 18.4035 21.6387 18.4773 21.7827L18.5586 21.741C18.4788 21.5851 18.3733 21.4618 18.2418 21.3729L18.1906 21.4486ZM18.4775 21.7831C18.5498 21.9207 18.5874 22.1011 18.5874 22.3269H18.6789C18.6789 22.0918 18.6397 21.8955 18.5584 21.7406L18.4775 21.7831ZM18.5874 22.3269C18.5874 22.5444 18.5263 22.7279 18.4054 22.8799L18.4769 22.9368C18.612 22.767 18.6789 22.5628 18.6789 22.3269H18.5874ZM18.4054 22.8799C18.2826 23.0342 18.1345 23.1384 17.9609 23.194L17.9888 23.281C18.1809 23.2196 18.3437 23.1043 18.4769 22.9368L18.4054 22.8799ZM17.9615 23.1938C17.7877 23.247 17.5821 23.2741 17.344 23.2741V23.3655C17.5887 23.3655 17.8037 23.3377 17.9883 23.2812L17.9615 23.1938ZM17.344 23.2741C16.902 23.2741 16.5276 23.1646 16.2182 22.9477L16.1658 23.0226C16.4928 23.2519 16.8863 23.3655 17.344 23.3655V23.2741ZM16.2308 23.0094L16.2582 22.9655L16.1807 22.917L16.1532 22.9609L16.2308 23.0094ZM16.1911 22.9771C16.3171 23.0764 16.4777 23.1572 16.6715 23.2206L16.6999 23.1337C16.5134 23.0727 16.3631 22.9963 16.2477 22.9054L16.1911 22.9771ZM16.6725 23.2209C16.8706 23.2807 17.0725 23.3106 17.2782 23.3106V23.2192C17.0816 23.2192 16.8885 23.1906 16.6989 23.1334L16.6725 23.2209ZM17.2782 23.3106C17.5815 23.3106 17.8429 23.2413 18.0601 23.1003L18.0103 23.0236C17.8106 23.1532 17.5673 23.2192 17.2782 23.2192V23.3106ZM18.0603 23.1002C18.286 22.9522 18.3991 22.7344 18.3991 22.453H18.3077C18.3077 22.7056 18.2086 22.8937 18.0102 23.0237L18.0603 23.1002ZM18.3991 22.453C18.3991 22.1424 18.2498 21.8997 17.9597 21.728L17.9132 21.8066C18.179 21.964 18.3077 22.1786 18.3077 22.453H18.3991ZM17.9596 21.7279C17.8333 21.6536 17.6942 21.585 17.5425 21.5221L17.5075 21.6066C17.6557 21.668 17.791 21.7348 17.9133 21.8067L17.9596 21.7279ZM17.5429 21.5223C17.3968 21.4602 17.2488 21.3963 17.0991 21.3305L17.0623 21.4142C17.2124 21.4801 17.3607 21.5442 17.5072 21.6064L17.5429 21.5223ZM17.0999 21.3309C16.952 21.2623 16.817 21.1867 16.6949 21.1041L16.6437 21.1798C16.7702 21.2654 16.9095 21.3434 17.0615 21.4138L17.0999 21.3309ZM16.6944 21.1038C16.4295 20.9295 16.2981 20.6843 16.2981 20.363H16.2066C16.2066 20.7146 16.3532 20.9887 16.6441 21.1801L16.6944 21.1038ZM16.2981 20.363C16.2981 20.1074 16.3833 19.9044 16.5521 19.7493L16.4902 19.682C16.3006 19.8561 16.2066 20.0846 16.2066 20.363H16.2981ZM16.5524 19.749C16.72 19.5917 16.9755 19.509 17.3276 19.509V19.4176C16.9628 19.4176 16.6807 19.5031 16.4899 19.6823L16.5524 19.749ZM17.3276 19.509C17.6843 19.509 18.047 19.5703 18.4157 19.6932L18.4446 19.6064C18.0673 19.4807 17.6949 19.4176 17.3276 19.4176V19.509ZM18.3878 19.6329L18.3658 19.6877L18.4507 19.7216L18.4726 19.6668L18.3878 19.6329ZM19.0152 20.6153H18.9695V20.661H19.0152V20.6153ZM19.0152 20.5714V20.5257H18.9695V20.5714H19.0152ZM19.1304 20.5714V20.6171H19.1761V20.5714H19.1304ZM19.1304 20.0229V19.9771H19.0847V20.0229H19.1304ZM19.5144 20.0229H19.5601V19.9771H19.5144V20.0229ZM19.5144 20.5714H19.4687V20.6171H19.5144V20.5714ZM20.3537 20.5714H20.3995V20.5257H20.3537V20.5714ZM20.3537 20.6153V20.661H20.3995V20.6153H20.3537ZM19.5144 20.6153V20.5696H19.4687V20.6153H19.5144ZM19.5912 23.1278L19.55 23.1477L19.5506 23.1488L19.5912 23.1278ZM20.447 23.1826L20.4898 23.1666L20.4735 23.123L20.4302 23.1401L20.447 23.1826ZM20.4635 23.2265L20.4797 23.2693L20.5222 23.2531L20.5062 23.2105L20.4635 23.2265ZM19.306 23.1881L19.2765 23.223L19.2771 23.2236L19.306 23.1881ZM19.1304 20.6153H19.1761V20.5696H19.1304V20.6153ZM19.0609 20.6153V20.5714H18.9695V20.6153H19.0609ZM19.0152 20.6171H19.1304V20.5257H19.0152V20.6171ZM19.1761 20.5714V20.0229H19.0847V20.5714H19.1761ZM19.1304 20.0686H19.5144V19.9771H19.1304V20.0686ZM19.4687 20.0229V20.5714H19.5601V20.0229H19.4687ZM19.5144 20.6171H20.3537V20.5257H19.5144V20.6171ZM20.308 20.5714V20.6153H20.3995V20.5714H20.308ZM20.3537 20.5696H19.5144V20.661H20.3537V20.5696ZM19.4687 20.6153V22.6121H19.5601V20.6153H19.4687ZM19.4687 22.6121C19.4687 22.8511 19.4941 23.0318 19.55 23.1477L19.6324 23.1079C19.5859 23.0117 19.5601 22.8486 19.5601 22.6121H19.4687ZM19.5506 23.1488C19.6164 23.276 19.7485 23.3326 19.9259 23.3326V23.2411C19.7668 23.2411 19.6758 23.1917 19.6318 23.1068L19.5506 23.1488ZM19.9259 23.3326C20.1041 23.3326 20.2834 23.2966 20.4638 23.2251L20.4302 23.1401C20.2594 23.2077 20.0914 23.2411 19.9259 23.2411V23.3326ZM20.4042 23.1987L20.4206 23.2426L20.5062 23.2105L20.4898 23.1666L20.4042 23.1987ZM20.4472 23.1838C20.2705 23.2509 20.0659 23.285 19.8326 23.285V23.3765C20.0747 23.3765 20.2907 23.3411 20.4797 23.2693L20.4472 23.1838ZM19.8326 23.285C19.6035 23.285 19.4402 23.2383 19.3348 23.1526L19.2771 23.2236C19.4057 23.3281 19.5935 23.3765 19.8326 23.3765V23.285ZM19.3355 23.1532C19.2348 23.0683 19.1761 22.893 19.1761 22.6066H19.0847C19.0847 22.8981 19.143 23.1104 19.2765 23.223L19.3355 23.1532ZM19.1761 22.6066V20.6153H19.0847V22.6066H19.1761ZM19.1304 20.5696H19.0152V20.661H19.1304V20.5696ZM20.9636 23.0071L20.9944 22.9733L20.9636 23.0071ZM20.9746 20.928L20.9423 20.8957L20.942 20.8959L20.9746 20.928ZM22.8726 20.8786L22.9034 20.8448L22.8726 20.8786ZM22.8562 22.9577L22.8239 22.9254L22.8236 22.9256L22.8562 22.9577ZM21.2489 20.9664L21.2855 20.9937L21.2857 20.9935L21.2489 20.9664ZM21.2269 22.9742L21.2628 22.9458L21.2269 22.9742ZM22.5874 22.9248L22.6241 22.9521L22.6242 22.9519L22.5874 22.9248ZM21.9017 23.2905C21.5269 23.2905 21.2259 23.1837 20.9944 22.9733L20.9329 23.0409C21.1841 23.2693 21.5084 23.3819 21.9017 23.3819V23.2905ZM20.9944 22.9733C20.7659 22.7655 20.6473 22.4418 20.6473 21.9922H20.5558C20.5558 22.4569 20.6786 22.8098 20.9329 23.0409L20.9944 22.9733ZM20.6473 21.9922C20.6473 21.5435 20.7692 21.2016 21.0072 20.9601L20.942 20.8959C20.6827 21.1591 20.5558 21.5267 20.5558 21.9922H20.6473ZM21.0069 20.9603C21.25 20.7173 21.5562 20.5952 21.9291 20.5952V20.5038C21.534 20.5038 21.2039 20.6341 20.9423 20.8957L21.0069 20.9603ZM21.9291 20.5952C22.3077 20.5952 22.6105 20.7021 22.8419 20.9125L22.9034 20.8448C22.6521 20.6163 22.3259 20.5038 21.9291 20.5038V20.5952ZM22.8419 20.9125C23.0704 21.1202 23.189 21.4439 23.189 21.8935H23.2804C23.2804 21.4288 23.1576 21.0759 22.9034 20.8448L22.8419 20.9125ZM23.189 21.8935C23.189 22.3421 23.0654 22.6838 22.8239 22.9254L22.8885 22.99C23.1517 22.7269 23.2804 22.3592 23.2804 21.8935H23.189ZM22.8236 22.9256C22.5844 23.1684 22.2784 23.2905 21.9017 23.2905V23.3819C22.3003 23.3819 22.6306 23.2517 22.8888 22.9898L22.8236 22.9256ZM21.9401 20.5477C21.6459 20.5477 21.4024 20.6804 21.2121 20.9393L21.2857 20.9935C21.4611 20.755 21.6785 20.6391 21.9401 20.6391V20.5477ZM21.2123 20.9391C21.0214 21.1948 20.9289 21.5496 20.9289 21.9977H21.0203C21.0203 21.5608 21.1107 21.228 21.2855 20.9937L21.2123 20.9391ZM20.9289 21.9977C20.9289 22.441 21.0136 22.7787 21.1911 23.0026L21.2628 22.9458C21.1039 22.7454 21.0203 22.4322 21.0203 21.9977H20.9289ZM21.1911 23.0026C21.3683 23.226 21.6048 23.3381 21.8962 23.3381V23.2466C21.6318 23.2466 21.422 23.1466 21.2628 22.9458L21.1911 23.0026ZM21.8962 23.3381C22.1902 23.3381 22.4336 23.2074 22.6241 22.9521L22.5508 22.8975C22.3756 23.1323 22.1581 23.2466 21.8962 23.2466V23.3381ZM22.6242 22.9519C22.8149 22.6927 22.9074 22.3381 22.9074 21.8935H22.816C22.816 22.3266 22.7257 22.6596 22.5506 22.8977L22.6242 22.9519ZM22.9074 21.8935C22.9074 21.4467 22.8228 21.1071 22.6452 20.8832L22.5735 20.9399C22.7324 21.1403 22.816 21.4552 22.816 21.8935H22.9074ZM22.6452 20.8832C22.468 20.6598 22.2316 20.5477 21.9401 20.5477V20.6391C22.2045 20.6391 22.4142 20.7391 22.5735 20.9399L22.6452 20.8832ZM24.6119 20.6921H24.6576V20.6246L24.5949 20.6497L24.6119 20.6921ZM24.162 21.0926L24.1997 21.1184L24.2 21.1181L24.162 21.0926ZM23.9481 21.6521L23.9024 21.6502V21.6521H23.9481ZM23.9481 23.3143V23.36H23.9938V23.3143H23.9481ZM23.5641 23.3143H23.5184V23.36H23.5641V23.3143ZM23.5641 20.5714V20.5257H23.5184V20.5714H23.5641ZM23.9481 20.5714H23.9938V20.5257H23.9481V20.5714ZM23.9481 21.4437H23.9024L23.9921 21.4558L23.9481 21.4437ZM24.2827 20.8457L24.317 20.876L24.3173 20.8756L24.2827 20.8457ZM24.8422 20.5495V20.5037L24.8407 20.5038L24.8422 20.5495ZM25.0452 20.6263L25.0116 20.6575L25.0141 20.6598L25.0452 20.6263ZM25.0452 20.9883L25.0141 20.9548L25.0129 20.956L25.0452 20.9883ZM24.6832 20.9883L24.7155 20.956L24.6832 20.9883ZM24.6576 20.8073V20.6921H24.5661V20.8073H24.6576ZM24.5949 20.6497C24.4192 20.72 24.2627 20.861 24.1241 21.0671L24.2 21.1181C24.332 20.9218 24.4754 20.7959 24.6288 20.7345L24.5949 20.6497ZM24.1243 21.0667C23.9858 21.2688 23.9102 21.4635 23.9024 21.6502L23.9937 21.654C24.0006 21.4896 24.0676 21.3113 24.1997 21.1184L24.1243 21.0667ZM23.9024 21.6521V23.3143H23.9938V21.6521H23.9024ZM23.9481 23.2686H23.5641V23.36H23.9481V23.2686ZM23.6098 23.3143V20.5714H23.5184V23.3143H23.6098ZM23.5641 20.6171H23.9481V20.5257H23.5641V20.6171ZM23.9024 20.5714V21.4437H23.9938V20.5714H23.9024ZM23.9921 21.4558C24.0486 21.2512 24.1564 21.058 24.317 20.876L24.2484 20.8155C24.0799 21.0065 23.9646 21.2119 23.904 21.4315L23.9921 21.4558ZM24.3173 20.8756C24.4754 20.6929 24.6507 20.602 24.8439 20.5952L24.8407 20.5038C24.6169 20.5116 24.4192 20.6181 24.2481 20.8158L24.3173 20.8756ZM24.8422 20.5952H24.8642V20.5038H24.8422V20.5952ZM24.8642 20.5952C24.9253 20.5952 24.9733 20.616 25.0117 20.6574L25.0787 20.5952C25.0221 20.5342 24.9494 20.5038 24.8642 20.5038V20.5952ZM25.0141 20.6598C25.0555 20.6982 25.0763 20.7462 25.0763 20.8073H25.1677C25.1677 20.7221 25.1373 20.6494 25.0764 20.5928L25.0141 20.6598ZM25.0763 20.8073C25.0763 20.8684 25.0555 20.9164 25.0141 20.9548L25.0764 21.0219C25.1373 20.9652 25.1677 20.8925 25.1677 20.8073H25.0763ZM25.0129 20.956C24.9747 20.9942 24.9264 21.0139 24.8642 21.0139V21.1054C24.9483 21.1054 25.0206 21.0776 25.0775 21.0207L25.0129 20.956ZM24.8642 21.0139C24.802 21.0139 24.7537 20.9942 24.7155 20.956L24.6508 21.0207C24.7078 21.0776 24.7801 21.1054 24.8642 21.1054V21.0139ZM24.7155 20.956C24.6773 20.9179 24.6576 20.8695 24.6576 20.8073H24.5661C24.5661 20.8914 24.5939 20.9638 24.6508 21.0207L24.7155 20.956ZM25.9783 22.9742L25.9416 23.0014L25.942 23.0018L25.9783 22.9742ZM27.5857 23.1278L27.6277 23.1098L27.6103 23.0693L27.5692 23.0851L27.5857 23.1278ZM27.6021 23.1662L27.6187 23.2088L27.6628 23.1917L27.6441 23.1482L27.6021 23.1662ZM25.715 23.0071L25.7466 22.974L25.715 23.0071ZM25.7315 20.928L25.6985 20.8964L25.7315 20.928ZM27.4101 20.8183L27.4402 20.7839L27.4101 20.8183ZM27.7173 21.6686V21.7143H27.763V21.6686H27.7173ZM25.7589 21.6686V21.6229H25.718L25.7135 21.6635L25.7589 21.6686ZM27.3443 21.6247V21.6704H27.3905L27.39 21.6242L27.3443 21.6247ZM27.1413 20.8457L27.1053 20.8739L27.1413 20.8457ZM26.0716 20.8677L26.0376 20.8371L26.0373 20.8374L26.0716 20.8677ZM25.7644 21.6247L25.7191 21.6185L25.7121 21.6704H25.7644V21.6247ZM25.6967 21.9758C25.6967 22.4327 25.7756 22.7775 25.9416 23.0014L26.0151 22.9469C25.8665 22.7466 25.7882 22.4258 25.7882 21.9758H25.6967ZM25.942 23.0018C26.1112 23.225 26.3348 23.3381 26.6092 23.3381V23.2466C26.3643 23.2466 26.1673 23.1476 26.0148 22.9466L25.942 23.0018ZM26.6092 23.3381C26.9794 23.3381 27.3107 23.2825 27.6021 23.1704L27.5692 23.0851C27.2902 23.1925 26.9704 23.2466 26.6092 23.2466V23.3381ZM27.5436 23.1458L27.5601 23.1842L27.6441 23.1482L27.6277 23.1098L27.5436 23.1458ZM27.5856 23.1236C27.2992 23.2346 26.9739 23.2905 26.6092 23.2905V23.3819C26.9832 23.3819 27.32 23.3245 27.6187 23.2088L27.5856 23.1236ZM26.6092 23.2905C26.2534 23.2905 25.9672 23.1841 25.7466 22.974L25.6835 23.0402C25.9237 23.2689 26.2337 23.3819 26.6092 23.3819V23.2905ZM25.7466 22.974C25.5286 22.7664 25.4151 22.4424 25.4151 21.9922H25.3237C25.3237 22.4564 25.4407 22.809 25.6835 23.0402L25.7466 22.974ZM25.4151 21.9922C25.4151 21.5431 25.5336 21.2011 25.7645 20.9596L25.6985 20.8964C25.4467 21.1596 25.3237 21.5271 25.3237 21.9922H25.4151ZM25.7645 20.9596C25.9966 20.7169 26.2916 20.5952 26.6531 20.5952V20.5038C26.2685 20.5038 25.9491 20.6344 25.6985 20.8964L25.7645 20.9596ZM26.6531 20.5952C26.9431 20.5952 27.1844 20.6816 27.38 20.8527L27.4402 20.7839C27.2262 20.5966 26.9628 20.5038 26.6531 20.5038V20.5952ZM27.38 20.8527C27.5722 21.0208 27.6716 21.2717 27.6716 21.6137H27.763C27.763 21.2535 27.6577 20.9741 27.4402 20.7839L27.38 20.8527ZM27.6716 21.6137C27.6716 21.6138 27.6716 21.6138 27.6716 21.6138C27.6716 21.6139 27.6716 21.6139 27.6716 21.6139C27.6716 21.6139 27.6716 21.614 27.6716 21.614C27.6716 21.6141 27.6716 21.6141 27.6716 21.6141C27.6716 21.6142 27.6716 21.6142 27.6716 21.6143C27.6716 21.6143 27.6716 21.6143 27.6716 21.6144C27.6716 21.6144 27.6716 21.6144 27.6716 21.6144C27.6716 21.6145 27.6716 21.6145 27.6716 21.6146C27.6716 21.6146 27.6716 21.6146 27.6716 21.6147C27.6716 21.6147 27.6716 21.6148 27.6716 21.6148C27.6716 21.6148 27.6716 21.6149 27.6716 21.6149C27.6716 21.615 27.6716 21.6149 27.6716 21.615C27.6716 21.615 27.6716 21.6151 27.6716 21.6151C27.6716 21.6151 27.6716 21.6152 27.6716 21.6152C27.6716 21.6153 27.6716 21.6153 27.6716 21.6153C27.6716 21.6154 27.6716 21.6154 27.6716 21.6154C27.6716 21.6155 27.6716 21.6155 27.6716 21.6155C27.6716 21.6156 27.6716 21.6156 27.6716 21.6156C27.6716 21.6157 27.6716 21.6157 27.6716 21.6158C27.6716 21.6158 27.6716 21.6158 27.6716 21.6159C27.6716 21.6159 27.6716 21.6159 27.6716 21.616C27.6716 21.616 27.6716 21.616 27.6716 21.6161C27.6716 21.6161 27.6716 21.6161 27.6716 21.6162C27.6716 21.6162 27.6716 21.6162 27.6716 21.6163C27.6716 21.6163 27.6716 21.6164 27.6716 21.6164C27.6716 21.6164 27.6716 21.6165 27.6716 21.6165C27.6716 21.6165 27.6716 21.6166 27.6716 21.6166C27.6716 21.6166 27.6716 21.6167 27.6716 21.6167C27.6716 21.6167 27.6716 21.6168 27.6716 21.6168C27.6716 21.6169 27.6716 21.6169 27.6716 21.6169C27.6716 21.617 27.6716 21.617 27.6716 21.6171C27.6716 21.6171 27.6716 21.6171 27.6716 21.6171C27.6716 21.6172 27.6716 21.6172 27.6716 21.6172C27.6716 21.6173 27.6716 21.6173 27.6716 21.6174C27.6716 21.6174 27.6716 21.6174 27.6716 21.6175C27.6716 21.6175 27.6716 21.6176 27.6716 21.6176C27.6716 21.6176 27.6716 21.6176 27.6716 21.6177C27.6716 21.6177 27.6716 21.6177 27.6716 21.6178C27.6716 21.6178 27.6716 21.6179 27.6716 21.6179C27.6716 21.6179 27.6716 21.618 27.6716 21.618C27.6716 21.6181 27.6716 21.6181 27.6716 21.6181C27.6716 21.6182 27.6716 21.6182 27.6716 21.6182C27.6716 21.6182 27.6716 21.6183 27.6716 21.6183C27.6716 21.6184 27.6716 21.6184 27.6716 21.6184C27.6716 21.6185 27.6716 21.6185 27.6716 21.6185C27.6716 21.6186 27.6716 21.6186 27.6716 21.6187C27.6716 21.6187 27.6716 21.6187 27.6716 21.6187C27.6716 21.6188 27.6716 21.6188 27.6716 21.6188C27.6716 21.6189 27.6716 21.6189 27.6716 21.619C27.6716 21.619 27.6716 21.619 27.6716 21.6191C27.6716 21.6191 27.6716 21.6192 27.6716 21.6192C27.6716 21.6192 27.6716 21.6192 27.6716 21.6193C27.6716 21.6193 27.6716 21.6193 27.6716 21.6194C27.6716 21.6194 27.6716 21.6195 27.6716 21.6195C27.6716 21.6195 27.6716 21.6196 27.6716 21.6196C27.6716 21.6197 27.6716 21.6197 27.6716 21.6197C27.6716 21.6197 27.6716 21.6198 27.6716 21.6198C27.6716 21.6198 27.6716 21.6199 27.6716 21.6199C27.6716 21.62 27.6716 21.62 27.6716 21.62C27.6716 21.6201 27.6716 21.6201 27.6716 21.6202C27.6716 21.6202 27.6716 21.6202 27.6716 21.6203C27.6716 21.6203 27.6716 21.6203 27.6716 21.6203C27.6716 21.6204 27.6716 21.6204 27.6716 21.6205C27.6716 21.6205 27.6716 21.6205 27.6716 21.6206C27.6716 21.6206 27.6716 21.6207 27.6716 21.6207C27.6716 21.6207 27.6716 21.6208 27.6716 21.6208C27.6716 21.6208 27.6716 21.6208 27.6716 21.6209C27.6716 21.6209 27.6716 21.621 27.6716 21.621C27.6716 21.621 27.6716 21.6211 27.6716 21.6211C27.6716 21.6211 27.6716 21.6212 27.6716 21.6212C27.6716 21.6213 27.6716 21.6213 27.6716 21.6213C27.6716 21.6214 27.6716 21.6214 27.6716 21.6214C27.6716 21.6215 27.6716 21.6215 27.6716 21.6215C27.6716 21.6216 27.6716 21.6216 27.6716 21.6216C27.6716 21.6217 27.6716 21.6217 27.6716 21.6218C27.6716 21.6218 27.6716 21.6218 27.6716 21.6219C27.6716 21.6219 27.6716 21.6219 27.6716 21.6219C27.6716 21.622 27.6716 21.622 27.6716 21.6221C27.6716 21.6221 27.6716 21.6221 27.6716 21.6222C27.6716 21.6222 27.6716 21.6223 27.6716 21.6223C27.6716 21.6223 27.6716 21.6224 27.6716 21.6224C27.6716 21.6224 27.6716 21.6224 27.6716 21.6225C27.6716 21.6225 27.6716 21.6226 27.6716 21.6226C27.6716 21.6226 27.6716 21.6227 27.6716 21.6227C27.6716 21.6228 27.6716 21.6228 27.6716 21.6228C27.6716 21.6229 27.6716 21.6229 27.6716 21.623C27.6716 21.623 27.6716 21.623 27.6716 21.623C27.6716 21.6231 27.6716 21.6231 27.6716 21.6231C27.6716 21.6232 27.6716 21.6232 27.6716 21.6233C27.6716 21.6233 27.6716 21.6233 27.6716 21.6234C27.6716 21.6234 27.6716 21.6234 27.6716 21.6235C27.6716 21.6235 27.6716 21.6235 27.6716 21.6236C27.6716 21.6236 27.6716 21.6236 27.6716 21.6237C27.6716 21.6237 27.6716 21.6238 27.6716 21.6238C27.6716 21.6238 27.6716 21.6239 27.6716 21.6239C27.6716 21.6239 27.6716 21.624 27.6716 21.624C27.6716 21.624 27.6716 21.6241 27.6716 21.6241C27.6716 21.6241 27.6716 21.6242 27.6716 21.6242C27.6716 21.6242 27.6716 21.6243 27.6716 21.6243C27.6716 21.6244 27.6716 21.6244 27.6716 21.6244C27.6716 21.6245 27.6716 21.6245 27.6716 21.6245C27.6716 21.6245 27.6716 21.6246 27.6716 21.6246C27.6716 21.6247 27.6716 21.6247 27.6716 21.6247C27.6716 21.6248 27.6716 21.6248 27.6716 21.6249C27.6716 21.6249 27.6716 21.6249 27.6716 21.625C27.6716 21.625 27.6716 21.6251 27.6716 21.6251C27.6716 21.6251 27.6716 21.6251 27.6716 21.6252C27.6716 21.6252 27.6716 21.6252 27.6716 21.6253C27.6716 21.6253 27.6716 21.6254 27.6716 21.6254C27.6716 21.6254 27.6716 21.6255 27.6716 21.6255C27.6716 21.6256 27.6716 21.6256 27.6716 21.6256C27.6716 21.6256 27.6716 21.6257 27.6716 21.6257C27.6716 21.6257 27.6716 21.6258 27.6716 21.6258C27.6716 21.6259 27.6716 21.6259 27.6716 21.6259C27.6716 21.626 27.6716 21.626 27.6716 21.6261C27.6716 21.6261 27.6716 21.6261 27.6716 21.6262C27.6716 21.6262 27.6716 21.6262 27.6716 21.6262C27.6716 21.6263 27.6716 21.6263 27.6716 21.6264C27.6716 21.6264 27.6716 21.6264 27.6716 21.6265C27.6716 21.6265 27.6716 21.6265 27.6716 21.6266C27.6716 21.6266 27.6716 21.6267 27.6716 21.6267C27.6716 21.6267 27.6716 21.6267 27.6716 21.6268C27.6716 21.6268 27.6716 21.6268 27.6716 21.6269C27.6716 21.6269 27.6716 21.627 27.6716 21.627C27.6716 21.627 27.6716 21.6271 27.6716 21.6271C27.6716 21.6272 27.6716 21.6272 27.6716 21.6272C27.6716 21.6272 27.6716 21.6273 27.6716 21.6273C27.6716 21.6273 27.6716 21.6274 27.6716 21.6274C27.6716 21.6275 27.6716 21.6275 27.6716 21.6275C27.6716 21.6276 27.6716 21.6276 27.6716 21.6277C27.6716 21.6277 27.6716 21.6277 27.6716 21.6277C27.6716 21.6278 27.6716 21.6278 27.6716 21.6278C27.6716 21.6279 27.6716 21.6279 27.6716 21.628C27.6716 21.628 27.6716 21.628 27.6716 21.6281C27.6716 21.6281 27.6716 21.6282 27.6716 21.6282C27.6716 21.6282 27.6716 21.6283 27.6716 21.6283C27.6716 21.6283 27.6716 21.6283 27.6716 21.6284C27.6716 21.6284 27.6716 21.6285 27.6716 21.6285C27.6716 21.6285 27.6716 21.6286 27.6716 21.6286C27.6716 21.6287 27.6716 21.6287 27.6716 21.6287C27.6716 21.6288 27.6716 21.6288 27.6716 21.6288C27.6716 21.6288 27.6716 21.6289 27.6716 21.6289C27.6716 21.629 27.6716 21.629 27.6716 21.629C27.6716 21.6291 27.6716 21.6291 27.6716 21.6291C27.6716 21.6292 27.6716 21.6292 27.6716 21.6293C27.6716 21.6293 27.6716 21.6293 27.6716 21.6294C27.6716 21.6294 27.6716 21.6294 27.6716 21.6295C27.6716 21.6295 27.6716 21.6295 27.6716 21.6296C27.6716 21.6296 27.6716 21.6296 27.6716 21.6297C27.6716 21.6297 27.6716 21.6298 27.6716 21.6298C27.6716 21.6298 27.6716 21.6299 27.6716 21.6299C27.6716 21.6299 27.6716 21.6299 27.6716 21.63C27.6716 21.63 27.6716 21.6301 27.6716 21.6301C27.6716 21.6301 27.6716 21.6302 27.6716 21.6302C27.6716 21.6303 27.6716 21.6303 27.6716 21.6303C27.6716 21.6304 27.6716 21.6304 27.6716 21.6304C27.6716 21.6304 27.6716 21.6305 27.6716 21.6305C27.6716 21.6306 27.6716 21.6306 27.6716 21.6306C27.6716 21.6307 27.6716 21.6307 27.6716 21.6308C27.6716 21.6308 27.6716 21.6308 27.6716 21.6309C27.6716 21.6309 27.6716 21.6309 27.6716 21.6309C27.6716 21.631 27.6716 21.631 27.6716 21.6311C27.6716 21.6311 27.6716 21.6311 27.6716 21.6312C27.6716 21.6312 27.6716 21.6313 27.6716 21.6313C27.6716 21.6313 27.6716 21.6314 27.6716 21.6314C27.6716 21.6314 27.6716 21.6315 27.6716 21.6315C27.6716 21.6315 27.6716 21.6316 27.6716 21.6316C27.6716 21.6316 27.6716 21.6317 27.6716 21.6317C27.6716 21.6318 27.6716 21.6318 27.6716 21.6318C27.6716 21.6319 27.6716 21.6319 27.6716 21.6319C27.6716 21.632 27.6716 21.632 27.6716 21.632C27.6716 21.6321 27.6716 21.6321 27.6716 21.6321C27.6716 21.6322 27.6716 21.6322 27.6716 21.6322C27.6716 21.6323 27.6716 21.6323 27.6716 21.6324C27.6716 21.6324 27.6716 21.6324 27.6716 21.6325C27.6716 21.6325 27.6716 21.6326 27.6716 21.6326C27.6716 21.6326 27.6716 21.6326 27.6716 21.6327C27.6716 21.6327 27.6716 21.6327 27.6716 21.6328C27.6716 21.6328 27.6716 21.6329 27.6716 21.6329C27.6716 21.6329 27.6716 21.633 27.6716 21.633C27.6716 21.6331 27.6716 21.6331 27.6716 21.6331C27.6716 21.6331 27.6716 21.6332 27.6716 21.6332C27.6716 21.6332 27.6716 21.6333 27.6716 21.6333C27.6716 21.6334 27.6716 21.6334 27.6716 21.6334C27.6716 21.6335 27.6716 21.6335 27.6716 21.6336C27.6716 21.6336 27.6716 21.6336 27.6716 21.6336C27.6716 21.6337 27.6716 21.6337 27.6716 21.6337C27.6716 21.6338 27.6716 21.6338 27.6716 21.6339C27.6716 21.6339 27.6716 21.6339 27.6716 21.634C27.6716 21.634 27.6716 21.6341 27.6716 21.6341C27.6716 21.6341 27.6716 21.6341 27.6716 21.6342C27.6716 21.6342 27.6716 21.6342 27.6716 21.6343C27.6716 21.6343 27.6716 21.6344 27.6716 21.6344C27.6716 21.6344 27.6716 21.6345 27.6716 21.6345C27.6716 21.6345 27.6716 21.6346 27.6716 21.6346C27.6716 21.6347 27.6716 21.6347 27.6716 21.6347C27.6716 21.6347 27.6716 21.6348 27.6716 21.6348C27.6716 21.6348 27.6716 21.6349 27.6716 21.6349C27.6716 21.635 27.6716 21.635 27.6716 21.635C27.6716 21.6351 27.6716 21.6351 27.6716 21.6352C27.6716 21.6352 27.6716 21.6352 27.6716 21.6352C27.6716 21.6353 27.6716 21.6353 27.6716 21.6353C27.6716 21.6354 27.6716 21.6354 27.6716 21.6355C27.6716 21.6355 27.6716 21.6355 27.6716 21.6356C27.6716 21.6356 27.6716 21.6357 27.6716 21.6357C27.6716 21.6357 27.6716 21.6358 27.6716 21.6358C27.6716 21.6358 27.6716 21.6358 27.6716 21.6359C27.6716 21.6359 27.6716 21.636 27.6716 21.636C27.6716 21.636 27.6716 21.6361 27.6716 21.6361C27.6716 21.6362 27.6716 21.6362 27.6716 21.6362C27.6716 21.6363 27.6716 21.6363 27.6716 21.6363C27.6716 21.6363 27.6716 21.6364 27.6716 21.6364C27.6716 21.6365 27.6716 21.6365 27.6716 21.6365C27.6716 21.6366 27.6716 21.6366 27.6716 21.6367C27.6716 21.6367 27.6716 21.6367 27.6716 21.6368C27.6716 21.6368 27.6716 21.6368 27.6716 21.6368C27.6716 21.6369 27.6716 21.6369 27.6716 21.637C27.6716 21.637 27.6716 21.637 27.6716 21.6371C27.6716 21.6371 27.6716 21.6371 27.6716 21.6372C27.6716 21.6372 27.6716 21.6373 27.6716 21.6373C27.6716 21.6373 27.6716 21.6373 27.6716 21.6374C27.6716 21.6374 27.6716 21.6375 27.6716 21.6375C27.6716 21.6375 27.6716 21.6376 27.6716 21.6376C27.6716 21.6376 27.6716 21.6377 27.6716 21.6377C27.6716 21.6378 27.6716 21.6378 27.6716 21.6378C27.6716 21.6379 27.6716 21.6379 27.6716 21.6379C27.6716 21.6379 27.6716 21.638 27.6716 21.638C27.6716 21.6381 27.6716 21.6381 27.6716 21.6381C27.6716 21.6382 27.6716 21.6382 27.6716 21.6383C27.6716 21.6383 27.6716 21.6383 27.6716 21.6384C27.6716 21.6384 27.6716 21.6384 27.6716 21.6384C27.6716 21.6385 27.6716 21.6385 27.6716 21.6386C27.6716 21.6386 27.6716 21.6386 27.6716 21.6387C27.6716 21.6387 27.6716 21.6388 27.6716 21.6388C27.6716 21.6388 27.6716 21.6389 27.6716 21.6389C27.6716 21.6389 27.6716 21.639 27.6716 21.639C27.6716 21.639 27.6716 21.6391 27.6716 21.6391C27.6716 21.6391 27.6716 21.6392 27.6716 21.6392C27.6716 21.6393 27.6716 21.6393 27.6716 21.6393C27.6716 21.6394 27.6716 21.6394 27.6716 21.6394C27.6716 21.6395 27.6716 21.6395 27.6716 21.6395C27.6716 21.6396 27.6716 21.6396 27.6716 21.6396C27.6716 21.6397 27.6716 21.6397 27.6716 21.6398C27.6716 21.6398 27.6716 21.6398 27.6716 21.6399C27.6716 21.6399 27.6716 21.6399 27.6716 21.64C27.6716 21.64 27.6716 21.64 27.6716 21.6401C27.6716 21.6401 27.6716 21.6401 27.6716 21.6402C27.6716 21.6402 27.6716 21.6402 27.6716 21.6403C27.6716 21.6403 27.6716 21.6404 27.6716 21.6404C27.6716 21.6404 27.6716 21.6405 27.6716 21.6405C27.6716 21.6406 27.6716 21.6405 27.6716 21.6406C27.6716 21.6406 27.6716 21.6407 27.6716 21.6407C27.6716 21.6407 27.6716 21.6408 27.6716 21.6408C27.6716 21.6409 27.6716 21.6409 27.6716 21.6409C27.6716 21.641 27.6716 21.641 27.6716 21.6411C27.6716 21.6411 27.6716 21.6411 27.6716 21.6411C27.6716 21.6412 27.6716 21.6412 27.6716 21.6412C27.6716 21.6413 27.6716 21.6413 27.6716 21.6414C27.6716 21.6414 27.6716 21.6414 27.6716 21.6415C27.6716 21.6415 27.6716 21.6416 27.6716 21.6416C27.6716 21.6416 27.6716 21.6416 27.6716 21.6417C27.6716 21.6417 27.6716 21.6417 27.6716 21.6418C27.6716 21.6418 27.6716 21.6419 27.6716 21.6419C27.6716 21.6419 27.6716 21.642 27.6716 21.642C27.6716 21.6421 27.6716 21.6421 27.6716 21.6421C27.6716 21.6421 27.6716 21.6422 27.6716 21.6422C27.6716 21.6422 27.6716 21.6423 27.6716 21.6423C27.6716 21.6424 27.6716 21.6424 27.6716 21.6424C27.6716 21.6425 27.6716 21.6425 27.6716 21.6425C27.6716 21.6426 27.6716 21.6426 27.6716 21.6427C27.6716 21.6427 27.6716 21.6427 27.6716 21.6427C27.6716 21.6428 27.6716 21.6428 27.6716 21.6428C27.6716 21.6429 27.6716 21.6429 27.6716 21.643C27.6716 21.643 27.6716 21.643 27.6716 21.6431C27.6716 21.6431 27.6716 21.6432 27.6716 21.6432C27.6716 21.6432 27.6716 21.6432 27.6716 21.6433C27.6716 21.6433 27.6716 21.6433 27.6716 21.6434C27.6716 21.6434 27.6716 21.6435 27.6716 21.6435C27.6716 21.6435 27.6716 21.6436 27.6716 21.6436C27.6716 21.6437 27.6716 21.6437 27.6716 21.6437C27.6716 21.6438 27.6716 21.6438 27.6716 21.6438C27.6716 21.6438 27.6716 21.6439 27.6716 21.6439C27.6716 21.644 27.6716 21.644 27.6716 21.644C27.6716 21.6441 27.6716 21.6441 27.6716 21.6442C27.6716 21.6442 27.6716 21.6442 27.6716 21.6443C27.6716 21.6443 27.6716 21.6443 27.6716 21.6443C27.6716 21.6444 27.6716 21.6444 27.6716 21.6445C27.6716 21.6445 27.6716 21.6445 27.6716 21.6446C27.6716 21.6446 27.6716 21.6447 27.6716 21.6447C27.6716 21.6447 27.6716 21.6448 27.6716 21.6448C27.6716 21.6448 27.6716 21.6448 27.6716 21.6449C27.6716 21.6449 27.6716 21.645 27.6716 21.645C27.6716 21.645 27.6716 21.6451 27.6716 21.6451C27.6716 21.6451 27.6716 21.6452 27.6716 21.6452C27.6716 21.6453 27.6716 21.6453 27.6716 21.6453C27.6716 21.6453 27.6716 21.6454 27.6716 21.6454C27.6716 21.6455 27.6716 21.6455 27.6716 21.6455C27.6716 21.6456 27.6716 21.6456 27.6716 21.6456C27.6716 21.6457 27.6716 21.6457 27.6716 21.6458C27.6716 21.6458 27.6716 21.6458 27.6716 21.6459C27.6716 21.6459 27.6716 21.6459 27.6716 21.6459C27.6716 21.646 27.6716 21.646 27.6716 21.6461C27.6716 21.6461 27.6716 21.6461 27.6716 21.6462C27.6716 21.6462 27.6716 21.6463 27.6716 21.6463C27.6716 21.6463 27.6716 21.6464 27.6716 21.6464C27.6716 21.6464 27.6716 21.6464 27.6716 21.6465C27.6716 21.6465 27.6716 21.6466 27.6716 21.6466C27.6716 21.6466 27.6716 21.6467 27.6716 21.6467C27.6716 21.6468 27.6716 21.6468 27.6716 21.6468C27.6716 21.6469 27.6716 21.6469 27.6716 21.6469C27.6716 21.6469 27.6716 21.647 27.6716 21.647C27.6716 21.6471 27.6716 21.6471 27.6716 21.6471C27.6716 21.6472 27.6716 21.6472 27.6716 21.6473C27.6716 21.6473 27.6716 21.6473 27.6716 21.6474C27.6716 21.6474 27.6716 21.6474 27.6716 21.6475C27.6716 21.6475 27.6716 21.6475 27.6716 21.6476C27.6716 21.6476 27.6716 21.6476 27.6716 21.6477C27.6716 21.6477 27.6716 21.6478 27.6716 21.6478C27.6716 21.6478 27.6716 21.6479 27.6716 21.6479C27.6716 21.6479 27.6716 21.648 27.6716 21.648C27.6716 21.648 27.6716 21.6481 27.6716 21.6481C27.6716 21.6481 27.6716 21.6482 27.6716 21.6482C27.6716 21.6482 27.6716 21.6483 27.6716 21.6483C27.6716 21.6484 27.6716 21.6484 27.6716 21.6484C27.6716 21.6485 27.6716 21.6485 27.6716 21.6486C27.6716 21.6486 27.6716 21.6486 27.6716 21.6486C27.6716 21.6487 27.6716 21.6487 27.6716 21.6487C27.6716 21.6488 27.6716 21.6488 27.6716 21.6489C27.6716 21.6489 27.6716 21.6489 27.6716 21.649C27.6716 21.649 27.6716 21.6491 27.6716 21.6491C27.6716 21.6491 27.6716 21.6491 27.6716 21.6492C27.6716 21.6492 27.6716 21.6492 27.6716 21.6493C27.6716 21.6493 27.6716 21.6494 27.6716 21.6494C27.6716 21.6494 27.6716 21.6495 27.6716 21.6495C27.6716 21.6496 27.6716 21.6496 27.6716 21.6496C27.6716 21.6496 27.6716 21.6497 27.6716 21.6497C27.6716 21.6497 27.6716 21.6498 27.6716 21.6498C27.6716 21.6499 27.6716 21.6499 27.6716 21.6499C27.6716 21.65 27.6716 21.65 27.6716 21.6501C27.6716 21.6501 27.6716 21.6501 27.6716 21.6501C27.6716 21.6502 27.6716 21.6502 27.6716 21.6502C27.6716 21.6503 27.6716 21.6503 27.6716 21.6504C27.6716 21.6504 27.6716 21.6504 27.6716 21.6505C27.6716 21.6505 27.6716 21.6505 27.6716 21.6506C27.6716 21.6506 27.6716 21.6507 27.6716 21.6507C27.6716 21.6507 27.6716 21.6507 27.6716 21.6508C27.6716 21.6508 27.6716 21.6508 27.6716 21.6509C27.6716 21.6509 27.6716 21.651 27.6716 21.651C27.6716 21.651 27.6716 21.6511 27.6716 21.6511C27.6716 21.6512 27.6716 21.6512 27.6716 21.6512C27.6716 21.6512 27.6716 21.6513 27.6716 21.6513C27.6716 21.6513 27.6716 21.6514 27.6716 21.6514C27.6716 21.6515 27.6716 21.6515 27.6716 21.6515C27.6716 21.6516 27.6716 21.6516 27.6716 21.6517C27.6716 21.6517 27.6716 21.6517 27.6716 21.6518C27.6716 21.6518 27.6716 21.6518 27.6716 21.6518C27.6716 21.6519 27.6716 21.6519 27.6716 21.652C27.6716 21.652 27.6716 21.652 27.6716 21.6521C27.6716 21.6521 27.6716 21.6522 27.6716 21.6522C27.6716 21.6522 27.6716 21.6523 27.6716 21.6523C27.6716 21.6523 27.6716 21.6523 27.6716 21.6524C27.6716 21.6524 27.6716 21.6525 27.6716 21.6525C27.6716 21.6525 27.6716 21.6526 27.6716 21.6526C27.6716 21.6527 27.6716 21.6527 27.6716 21.6527C27.6716 21.6528 27.6716 21.6528 27.6716 21.6528C27.6716 21.6528 27.6716 21.6529 27.6716 21.6529C27.6716 21.653 27.6716 21.653 27.6716 21.653C27.6716 21.6531 27.6716 21.6531 27.6716 21.6531C27.6716 21.6532 27.6716 21.6532 27.6716 21.6533C27.6716 21.6533 27.6716 21.6533 27.6716 21.6533C27.6716 21.6534 27.6716 21.6534 27.6716 21.6535C27.6716 21.6535 27.6716 21.6535 27.6716 21.6536C27.6716 21.6536 27.6716 21.6536 27.6716 21.6537C27.6716 21.6537 27.6716 21.6538 27.6716 21.6538C27.6716 21.6538 27.6716 21.6539 27.6716 21.6539C27.6716 21.6539 27.6716 21.6539 27.6716 21.654C27.6716 21.654 27.6716 21.6541 27.6716 21.6541C27.6716 21.6541 27.6716 21.6542 27.6716 21.6542C27.6716 21.6543 27.6716 21.6543 27.6716 21.6543C27.6716 21.6544 27.6716 21.6544 27.6716 21.6544C27.6716 21.6544 27.6716 21.6545 27.6716 21.6545C27.6716 21.6546 27.6716 21.6546 27.6716 21.6546C27.6716 21.6547 27.6716 21.6547 27.6716 21.6548C27.6716 21.6548 27.6716 21.6548 27.6716 21.6549C27.6716 21.6549 27.6716 21.655 27.6716 21.655C27.6716 21.655 27.6716 21.655 27.6716 21.6551C27.6716 21.6551 27.6716 21.6551 27.6716 21.6552C27.6716 21.6552 27.6716 21.6553 27.6716 21.6553C27.6716 21.6553 27.6716 21.6554 27.6716 21.6554C27.6716 21.6554 27.6716 21.6555 27.6716 21.6555C27.6716 21.6555 27.6716 21.6556 27.6716 21.6556C27.6716 21.6556 27.6716 21.6557 27.6716 21.6557C27.6716 21.6558 27.6716 21.6558 27.6716 21.6558C27.6716 21.6559 27.6716 21.6559 27.6716 21.6559C27.6716 21.656 27.6716 21.656 27.6716 21.656C27.6716 21.6561 27.6716 21.6561 27.6716 21.6561C27.6716 21.6562 27.6716 21.6562 27.6716 21.6562C27.6716 21.6563 27.6716 21.6563 27.6716 21.6564C27.6716 21.6564 27.6716 21.6564 27.6716 21.6565C27.6716 21.6565 27.6716 21.6565 27.6716 21.6565C27.6716 21.6566 27.6716 21.6566 27.6716 21.6567C27.6716 21.6567 27.6716 21.6567 27.6716 21.6568C27.6716 21.6568 27.6716 21.6569 27.6716 21.6569C27.6716 21.6569 27.6716 21.657 27.6716 21.657C27.6716 21.6571 27.6716 21.6571 27.6716 21.6571C27.6716 21.6571 27.6716 21.6572 27.6716 21.6572C27.6716 21.6572 27.6716 21.6573 27.6716 21.6573C27.6716 21.6574 27.6716 21.6574 27.6716 21.6574C27.6716 21.6575 27.6716 21.6575 27.6716 21.6576C27.6716 21.6576 27.6716 21.6576 27.6716 21.6576C27.6716 21.6577 27.6716 21.6577 27.6716 21.6577C27.6716 21.6578 27.6716 21.6578 27.6716 21.6579C27.6716 21.6579 27.6716 21.6579 27.6716 21.658C27.6716 21.658 27.6716 21.6581 27.6716 21.6581C27.6716 21.6581 27.6716 21.6582 27.6716 21.6582C27.6716 21.6582 27.6716 21.6582 27.6716 21.6583C27.6716 21.6583 27.6716 21.6584 27.6716 21.6584C27.6716 21.6584 27.6716 21.6585 27.6716 21.6585C27.6716 21.6585 27.6716 21.6586 27.6716 21.6586C27.6716 21.6587 27.6716 21.6587 27.6716 21.6587C27.6716 21.6587 27.6716 21.6588 27.6716 21.6588C27.6716 21.6588 27.6716 21.6589 27.6716 21.6589C27.6716 21.659 27.6716 21.659 27.6716 21.659C27.6716 21.6591 27.6716 21.6591 27.6716 21.6592C27.6716 21.6592 27.6716 21.6592 27.6716 21.6592C27.6716 21.6593 27.6716 21.6593 27.6716 21.6593C27.6716 21.6594 27.6716 21.6594 27.6716 21.6595C27.6716 21.6595 27.6716 21.6595 27.6716 21.6596C27.6716 21.6596 27.6716 21.6597 27.6716 21.6597C27.6716 21.6597 27.6716 21.6597 27.6716 21.6598C27.6716 21.6598 27.6716 21.6598 27.6716 21.6599C27.6716 21.6599 27.6716 21.66 27.6716 21.66C27.6716 21.66 27.6716 21.6601 27.6716 21.6601C27.6716 21.6602 27.6716 21.6602 27.6716 21.6602C27.6716 21.6603 27.6716 21.6603 27.6716 21.6603C27.6716 21.6603 27.6716 21.6604 27.6716 21.6604C27.6716 21.6605 27.6716 21.6605 27.6716 21.6605C27.6716 21.6606 27.6716 21.6606 27.6716 21.6607C27.6716 21.6607 27.6716 21.6607 27.6716 21.6608C27.6716 21.6608 27.6716 21.6608 27.6716 21.6608C27.6716 21.6609 27.6716 21.6609 27.6716 21.661C27.6716 21.661 27.6716 21.661 27.6716 21.6611C27.6716 21.6611 27.6716 21.6611 27.6716 21.6612C27.6716 21.6612 27.6716 21.6613 27.6716 21.6613C27.6716 21.6613 27.6716 21.6614 27.6716 21.6614C27.6716 21.6614 27.6716 21.6615 27.6716 21.6615C27.6716 21.6615 27.6716 21.6616 27.6716 21.6616C27.6716 21.6616 27.6716 21.6617 27.6716 21.6617C27.6716 21.6618 27.6716 21.6618 27.6716 21.6618C27.6716 21.6619 27.6716 21.6619 27.6716 21.6619C27.6716 21.6619 27.6716 21.662 27.6716 21.662C27.6716 21.6621 27.6716 21.6621 27.6716 21.6621C27.6716 21.6622 27.6716 21.6622 27.6716 21.6623C27.6716 21.6623 27.6716 21.6623 27.6716 21.6624C27.6716 21.6624 27.6716 21.6624 27.6716 21.6624C27.6716 21.6625 27.6716 21.6625 27.6716 21.6626C27.6716 21.6626 27.6716 21.6626 27.6716 21.6627C27.6716 21.6627 27.6716 21.6628 27.6716 21.6628C27.6716 21.6628 27.6716 21.6629 27.6716 21.6629C27.6716 21.663 27.6716 21.6629 27.6716 21.663C27.6716 21.663 27.6716 21.6631 27.6716 21.6631C27.6716 21.6631 27.6716 21.6632 27.6716 21.6632C27.6716 21.6633 27.6716 21.6633 27.6716 21.6633C27.6716 21.6634 27.6716 21.6634 27.6716 21.6634C27.6716 21.6635 27.6716 21.6635 27.6716 21.6635C27.6716 21.6636 27.6716 21.6636 27.6716 21.6636C27.6716 21.6637 27.6716 21.6637 27.6716 21.6638C27.6716 21.6638 27.6716 21.6638 27.6716 21.6639C27.6716 21.6639 27.6716 21.6639 27.6716 21.664C27.6716 21.664 27.6716 21.664 27.6716 21.6641C27.6716 21.6641 27.6716 21.6641 27.6716 21.6642C27.6716 21.6642 27.6716 21.6642 27.6716 21.6643C27.6716 21.6643 27.6716 21.6644 27.6716 21.6644C27.6716 21.6644 27.6716 21.6645 27.6716 21.6645C27.6716 21.6646 27.6716 21.6646 27.6716 21.6646C27.6716 21.6646 27.6716 21.6647 27.6716 21.6647C27.6716 21.6647 27.6716 21.6648 27.6716 21.6648C27.6716 21.6649 27.6716 21.6649 27.6716 21.6649C27.6716 21.665 27.6716 21.665 27.6716 21.6651C27.6716 21.6651 27.6716 21.6651 27.6716 21.6651C27.6716 21.6652 27.6716 21.6652 27.6716 21.6652C27.6716 21.6653 27.6716 21.6653 27.6716 21.6654C27.6716 21.6654 27.6716 21.6654 27.6716 21.6655C27.6716 21.6655 27.6716 21.6656 27.6716 21.6656C27.6716 21.6656 27.6716 21.6656 27.6716 21.6657C27.6716 21.6657 27.6716 21.6657 27.6716 21.6658C27.6716 21.6658 27.6716 21.6659 27.6716 21.6659C27.6716 21.6659 27.6716 21.666 27.6716 21.666C27.6716 21.6661 27.6716 21.6661 27.6716 21.6661C27.6716 21.6662 27.6716 21.6662 27.6716 21.6662C27.6716 21.6662 27.6716 21.6663 27.6716 21.6663C27.6716 21.6664 27.6716 21.6664 27.6716 21.6664C27.6716 21.6665 27.6716 21.6665 27.6716 21.6665C27.6716 21.6666 27.6716 21.6666 27.6716 21.6667C27.6716 21.6667 27.6716 21.6667 27.6716 21.6667C27.6716 21.6668 27.6716 21.6668 27.6716 21.6668C27.6716 21.6669 27.6716 21.6669 27.6716 21.667C27.6716 21.667 27.6716 21.667 27.6716 21.6671C27.6716 21.6671 27.6716 21.6672 27.6716 21.6672C27.6716 21.6672 27.6716 21.6672 27.6716 21.6673C27.6716 21.6673 27.6716 21.6673 27.6716 21.6674C27.6716 21.6674 27.6716 21.6675 27.6716 21.6675C27.6716 21.6675 27.6716 21.6676 27.6716 21.6676C27.6716 21.6677 27.6716 21.6677 27.6716 21.6677C27.6716 21.6678 27.6716 21.6678 27.6716 21.6678C27.6716 21.6678 27.6716 21.6679 27.6716 21.6679C27.6716 21.668 27.6716 21.668 27.6716 21.668C27.6716 21.6681 27.6716 21.6681 27.6716 21.6682C27.6716 21.6682 27.6716 21.6682 27.6716 21.6683C27.6716 21.6683 27.6716 21.6683 27.6716 21.6683C27.6716 21.6684 27.6716 21.6684 27.6716 21.6685C27.6716 21.6685 27.6716 21.6685 27.6716 21.6686H27.763C27.763 21.6685 27.763 21.6685 27.763 21.6685C27.763 21.6684 27.763 21.6684 27.763 21.6683C27.763 21.6683 27.763 21.6683 27.763 21.6683C27.763 21.6682 27.763 21.6682 27.763 21.6682C27.763 21.6681 27.763 21.6681 27.763 21.668C27.763 21.668 27.763 21.668 27.763 21.6679C27.763 21.6679 27.763 21.6678 27.763 21.6678C27.763 21.6678 27.763 21.6678 27.763 21.6677C27.763 21.6677 27.763 21.6677 27.763 21.6676C27.763 21.6676 27.763 21.6675 27.763 21.6675C27.763 21.6675 27.763 21.6674 27.763 21.6674C27.763 21.6673 27.763 21.6673 27.763 21.6673C27.763 21.6672 27.763 21.6672 27.763 21.6672C27.763 21.6672 27.763 21.6671 27.763 21.6671C27.763 21.667 27.763 21.667 27.763 21.667C27.763 21.6669 27.763 21.6669 27.763 21.6668C27.763 21.6668 27.763 21.6668 27.763 21.6667C27.763 21.6667 27.763 21.6667 27.763 21.6667C27.763 21.6666 27.763 21.6666 27.763 21.6665C27.763 21.6665 27.763 21.6665 27.763 21.6664C27.763 21.6664 27.763 21.6664 27.763 21.6663C27.763 21.6663 27.763 21.6662 27.763 21.6662C27.763 21.6662 27.763 21.6662 27.763 21.6661C27.763 21.6661 27.763 21.6661 27.763 21.666C27.763 21.666 27.763 21.6659 27.763 21.6659C27.763 21.6659 27.763 21.6658 27.763 21.6658C27.763 21.6657 27.763 21.6657 27.763 21.6657C27.763 21.6656 27.763 21.6656 27.763 21.6656C27.763 21.6656 27.763 21.6655 27.763 21.6655C27.763 21.6654 27.763 21.6654 27.763 21.6654C27.763 21.6653 27.763 21.6653 27.763 21.6652C27.763 21.6652 27.763 21.6652 27.763 21.6651C27.763 21.6651 27.763 21.6651 27.763 21.6651C27.763 21.665 27.763 21.665 27.763 21.6649C27.763 21.6649 27.763 21.6649 27.763 21.6648C27.763 21.6648 27.763 21.6647 27.763 21.6647C27.763 21.6647 27.763 21.6646 27.763 21.6646C27.763 21.6646 27.763 21.6646 27.763 21.6645C27.763 21.6645 27.763 21.6644 27.763 21.6644C27.763 21.6644 27.763 21.6643 27.763 21.6643C27.763 21.6642 27.763 21.6642 27.763 21.6642C27.763 21.6641 27.763 21.6641 27.763 21.6641C27.763 21.664 27.763 21.664 27.763 21.664C27.763 21.6639 27.763 21.6639 27.763 21.6639C27.763 21.6638 27.763 21.6638 27.763 21.6638C27.763 21.6637 27.763 21.6637 27.763 21.6636C27.763 21.6636 27.763 21.6636 27.763 21.6635C27.763 21.6635 27.763 21.6635 27.763 21.6634C27.763 21.6634 27.763 21.6634 27.763 21.6633C27.763 21.6633 27.763 21.6633 27.763 21.6632C27.763 21.6632 27.763 21.6631 27.763 21.6631C27.763 21.6631 27.763 21.663 27.763 21.663C27.763 21.6629 27.763 21.663 27.763 21.6629C27.763 21.6629 27.763 21.6628 27.763 21.6628C27.763 21.6628 27.763 21.6627 27.763 21.6627C27.763 21.6626 27.763 21.6626 27.763 21.6626C27.763 21.6625 27.763 21.6625 27.763 21.6624C27.763 21.6624 27.763 21.6624 27.763 21.6624C27.763 21.6623 27.763 21.6623 27.763 21.6623C27.763 21.6622 27.763 21.6622 27.763 21.6621C27.763 21.6621 27.763 21.6621 27.763 21.662C27.763 21.662 27.763 21.6619 27.763 21.6619C27.763 21.6619 27.763 21.6619 27.763 21.6618C27.763 21.6618 27.763 21.6618 27.763 21.6617C27.763 21.6617 27.763 21.6616 27.763 21.6616C27.763 21.6616 27.763 21.6615 27.763 21.6615C27.763 21.6615 27.763 21.6614 27.763 21.6614C27.763 21.6614 27.763 21.6613 27.763 21.6613C27.763 21.6613 27.763 21.6612 27.763 21.6612C27.763 21.6611 27.763 21.6611 27.763 21.6611C27.763 21.661 27.763 21.661 27.763 21.661C27.763 21.6609 27.763 21.6609 27.763 21.6608C27.763 21.6608 27.763 21.6608 27.763 21.6608C27.763 21.6607 27.763 21.6607 27.763 21.6607C27.763 21.6606 27.763 21.6606 27.763 21.6605C27.763 21.6605 27.763 21.6605 27.763 21.6604C27.763 21.6604 27.763 21.6603 27.763 21.6603C27.763 21.6603 27.763 21.6603 27.763 21.6602C27.763 21.6602 27.763 21.6602 27.763 21.6601C27.763 21.6601 27.763 21.66 27.763 21.66C27.763 21.66 27.763 21.6599 27.763 21.6599C27.763 21.6598 27.763 21.6598 27.763 21.6598C27.763 21.6597 27.763 21.6597 27.763 21.6597C27.763 21.6597 27.763 21.6596 27.763 21.6596C27.763 21.6595 27.763 21.6595 27.763 21.6595C27.763 21.6594 27.763 21.6594 27.763 21.6593C27.763 21.6593 27.763 21.6593 27.763 21.6592C27.763 21.6592 27.763 21.6592 27.763 21.6592C27.763 21.6591 27.763 21.6591 27.763 21.659C27.763 21.659 27.763 21.659 27.763 21.6589C27.763 21.6589 27.763 21.6588 27.763 21.6588C27.763 21.6588 27.763 21.6587 27.763 21.6587C27.763 21.6587 27.763 21.6587 27.763 21.6586C27.763 21.6586 27.763 21.6585 27.763 21.6585C27.763 21.6585 27.763 21.6584 27.763 21.6584C27.763 21.6584 27.763 21.6583 27.763 21.6583C27.763 21.6582 27.763 21.6582 27.763 21.6582C27.763 21.6582 27.763 21.6581 27.763 21.6581C27.763 21.6581 27.763 21.658 27.763 21.658C27.763 21.6579 27.763 21.6579 27.763 21.6579C27.763 21.6578 27.763 21.6578 27.763 21.6577C27.763 21.6577 27.763 21.6577 27.763 21.6576C27.763 21.6576 27.763 21.6576 27.763 21.6576C27.763 21.6575 27.763 21.6575 27.763 21.6574C27.763 21.6574 27.763 21.6574 27.763 21.6573C27.763 21.6573 27.763 21.6572 27.763 21.6572C27.763 21.6572 27.763 21.6571 27.763 21.6571C27.763 21.6571 27.763 21.6571 27.763 21.657C27.763 21.657 27.763 21.6569 27.763 21.6569C27.763 21.6569 27.763 21.6568 27.763 21.6568C27.763 21.6567 27.763 21.6567 27.763 21.6567C27.763 21.6566 27.763 21.6566 27.763 21.6565C27.763 21.6565 27.763 21.6565 27.763 21.6565C27.763 21.6564 27.763 21.6564 27.763 21.6564C27.763 21.6563 27.763 21.6563 27.763 21.6562C27.763 21.6562 27.763 21.6562 27.763 21.6561C27.763 21.6561 27.763 21.6561 27.763 21.656C27.763 21.656 27.763 21.656 27.763 21.6559C27.763 21.6559 27.763 21.6559 27.763 21.6558C27.763 21.6558 27.763 21.6558 27.763 21.6557C27.763 21.6557 27.763 21.6556 27.763 21.6556C27.763 21.6556 27.763 21.6555 27.763 21.6555C27.763 21.6555 27.763 21.6554 27.763 21.6554C27.763 21.6554 27.763 21.6553 27.763 21.6553C27.763 21.6553 27.763 21.6552 27.763 21.6552C27.763 21.6551 27.763 21.6551 27.763 21.6551C27.763 21.655 27.763 21.655 27.763 21.655C27.763 21.655 27.763 21.6549 27.763 21.6549C27.763 21.6548 27.763 21.6548 27.763 21.6548C27.763 21.6547 27.763 21.6547 27.763 21.6546C27.763 21.6546 27.763 21.6546 27.763 21.6545C27.763 21.6545 27.763 21.6544 27.763 21.6544C27.763 21.6544 27.763 21.6544 27.763 21.6543C27.763 21.6543 27.763 21.6543 27.763 21.6542C27.763 21.6542 27.763 21.6541 27.763 21.6541C27.763 21.6541 27.763 21.654 27.763 21.654C27.763 21.6539 27.763 21.6539 27.763 21.6539C27.763 21.6539 27.763 21.6538 27.763 21.6538C27.763 21.6538 27.763 21.6537 27.763 21.6537C27.763 21.6536 27.763 21.6536 27.763 21.6536C27.763 21.6535 27.763 21.6535 27.763 21.6535C27.763 21.6534 27.763 21.6534 27.763 21.6533C27.763 21.6533 27.763 21.6533 27.763 21.6533C27.763 21.6532 27.763 21.6532 27.763 21.6531C27.763 21.6531 27.763 21.6531 27.763 21.653C27.763 21.653 27.763 21.653 27.763 21.6529C27.763 21.6529 27.763 21.6528 27.763 21.6528C27.763 21.6528 27.763 21.6528 27.763 21.6527C27.763 21.6527 27.763 21.6527 27.763 21.6526C27.763 21.6526 27.763 21.6525 27.763 21.6525C27.763 21.6525 27.763 21.6524 27.763 21.6524C27.763 21.6523 27.763 21.6523 27.763 21.6523C27.763 21.6523 27.763 21.6522 27.763 21.6522C27.763 21.6522 27.763 21.6521 27.763 21.6521C27.763 21.652 27.763 21.652 27.763 21.652C27.763 21.6519 27.763 21.6519 27.763 21.6518C27.763 21.6518 27.763 21.6518 27.763 21.6518C27.763 21.6517 27.763 21.6517 27.763 21.6517C27.763 21.6516 27.763 21.6516 27.763 21.6515C27.763 21.6515 27.763 21.6515 27.763 21.6514C27.763 21.6514 27.763 21.6513 27.763 21.6513C27.763 21.6513 27.763 21.6512 27.763 21.6512C27.763 21.6512 27.763 21.6512 27.763 21.6511C27.763 21.6511 27.763 21.651 27.763 21.651C27.763 21.651 27.763 21.6509 27.763 21.6509C27.763 21.6508 27.763 21.6508 27.763 21.6508C27.763 21.6507 27.763 21.6507 27.763 21.6507C27.763 21.6507 27.763 21.6506 27.763 21.6506C27.763 21.6505 27.763 21.6505 27.763 21.6505C27.763 21.6504 27.763 21.6504 27.763 21.6504C27.763 21.6503 27.763 21.6503 27.763 21.6502C27.763 21.6502 27.763 21.6502 27.763 21.6501C27.763 21.6501 27.763 21.6501 27.763 21.6501C27.763 21.65 27.763 21.65 27.763 21.6499C27.763 21.6499 27.763 21.6499 27.763 21.6498C27.763 21.6498 27.763 21.6497 27.763 21.6497C27.763 21.6497 27.763 21.6496 27.763 21.6496C27.763 21.6496 27.763 21.6496 27.763 21.6495C27.763 21.6495 27.763 21.6494 27.763 21.6494C27.763 21.6494 27.763 21.6493 27.763 21.6493C27.763 21.6492 27.763 21.6492 27.763 21.6492C27.763 21.6491 27.763 21.6491 27.763 21.6491C27.763 21.6491 27.763 21.649 27.763 21.649C27.763 21.6489 27.763 21.6489 27.763 21.6489C27.763 21.6488 27.763 21.6488 27.763 21.6487C27.763 21.6487 27.763 21.6487 27.763 21.6486C27.763 21.6486 27.763 21.6486 27.763 21.6486C27.763 21.6485 27.763 21.6485 27.763 21.6484C27.763 21.6484 27.763 21.6484 27.763 21.6483C27.763 21.6483 27.763 21.6482 27.763 21.6482C27.763 21.6482 27.763 21.6481 27.763 21.6481C27.763 21.6481 27.763 21.648 27.763 21.648C27.763 21.648 27.763 21.6479 27.763 21.6479C27.763 21.6479 27.763 21.6478 27.763 21.6478C27.763 21.6478 27.763 21.6477 27.763 21.6477C27.763 21.6476 27.763 21.6476 27.763 21.6476C27.763 21.6475 27.763 21.6475 27.763 21.6475C27.763 21.6474 27.763 21.6474 27.763 21.6474C27.763 21.6473 27.763 21.6473 27.763 21.6473C27.763 21.6472 27.763 21.6472 27.763 21.6471C27.763 21.6471 27.763 21.6471 27.763 21.647C27.763 21.647 27.763 21.6469 27.763 21.6469C27.763 21.6469 27.763 21.6469 27.763 21.6468C27.763 21.6468 27.763 21.6468 27.763 21.6467C27.763 21.6467 27.763 21.6466 27.763 21.6466C27.763 21.6466 27.763 21.6465 27.763 21.6465C27.763 21.6464 27.763 21.6464 27.763 21.6464C27.763 21.6464 27.763 21.6463 27.763 21.6463C27.763 21.6463 27.763 21.6462 27.763 21.6462C27.763 21.6461 27.763 21.6461 27.763 21.6461C27.763 21.646 27.763 21.646 27.763 21.6459C27.763 21.6459 27.763 21.6459 27.763 21.6459C27.763 21.6458 27.763 21.6458 27.763 21.6458C27.763 21.6457 27.763 21.6457 27.763 21.6456C27.763 21.6456 27.763 21.6456 27.763 21.6455C27.763 21.6455 27.763 21.6455 27.763 21.6454C27.763 21.6454 27.763 21.6453 27.763 21.6453C27.763 21.6453 27.763 21.6453 27.763 21.6452C27.763 21.6452 27.763 21.6451 27.763 21.6451C27.763 21.6451 27.763 21.645 27.763 21.645C27.763 21.645 27.763 21.6449 27.763 21.6449C27.763 21.6448 27.763 21.6448 27.763 21.6448C27.763 21.6448 27.763 21.6447 27.763 21.6447C27.763 21.6447 27.763 21.6446 27.763 21.6446C27.763 21.6445 27.763 21.6445 27.763 21.6445C27.763 21.6444 27.763 21.6444 27.763 21.6443C27.763 21.6443 27.763 21.6443 27.763 21.6443C27.763 21.6442 27.763 21.6442 27.763 21.6442C27.763 21.6441 27.763 21.6441 27.763 21.644C27.763 21.644 27.763 21.644 27.763 21.6439C27.763 21.6439 27.763 21.6438 27.763 21.6438C27.763 21.6438 27.763 21.6438 27.763 21.6437C27.763 21.6437 27.763 21.6437 27.763 21.6436C27.763 21.6436 27.763 21.6435 27.763 21.6435C27.763 21.6435 27.763 21.6434 27.763 21.6434C27.763 21.6433 27.763 21.6433 27.763 21.6433C27.763 21.6432 27.763 21.6432 27.763 21.6432C27.763 21.6432 27.763 21.6431 27.763 21.6431C27.763 21.643 27.763 21.643 27.763 21.643C27.763 21.6429 27.763 21.6429 27.763 21.6428C27.763 21.6428 27.763 21.6428 27.763 21.6427C27.763 21.6427 27.763 21.6427 27.763 21.6427C27.763 21.6426 27.763 21.6426 27.763 21.6425C27.763 21.6425 27.763 21.6425 27.763 21.6424C27.763 21.6424 27.763 21.6424 27.763 21.6423C27.763 21.6423 27.763 21.6422 27.763 21.6422C27.763 21.6422 27.763 21.6421 27.763 21.6421C27.763 21.6421 27.763 21.6421 27.763 21.642C27.763 21.642 27.763 21.6419 27.763 21.6419C27.763 21.6419 27.763 21.6418 27.763 21.6418C27.763 21.6417 27.763 21.6417 27.763 21.6417C27.763 21.6416 27.763 21.6416 27.763 21.6416C27.763 21.6416 27.763 21.6415 27.763 21.6415C27.763 21.6414 27.763 21.6414 27.763 21.6414C27.763 21.6413 27.763 21.6413 27.763 21.6412C27.763 21.6412 27.763 21.6412 27.763 21.6411C27.763 21.6411 27.763 21.6411 27.763 21.6411C27.763 21.641 27.763 21.641 27.763 21.6409C27.763 21.6409 27.763 21.6409 27.763 21.6408C27.763 21.6408 27.763 21.6407 27.763 21.6407C27.763 21.6407 27.763 21.6406 27.763 21.6406C27.763 21.6405 27.763 21.6406 27.763 21.6405C27.763 21.6405 27.763 21.6404 27.763 21.6404C27.763 21.6404 27.763 21.6403 27.763 21.6403C27.763 21.6402 27.763 21.6402 27.763 21.6402C27.763 21.6401 27.763 21.6401 27.763 21.6401C27.763 21.64 27.763 21.64 27.763 21.64C27.763 21.6399 27.763 21.6399 27.763 21.6399C27.763 21.6398 27.763 21.6398 27.763 21.6398C27.763 21.6397 27.763 21.6397 27.763 21.6396C27.763 21.6396 27.763 21.6396 27.763 21.6395C27.763 21.6395 27.763 21.6395 27.763 21.6394C27.763 21.6394 27.763 21.6394 27.763 21.6393C27.763 21.6393 27.763 21.6393 27.763 21.6392C27.763 21.6392 27.763 21.6391 27.763 21.6391C27.763 21.6391 27.763 21.639 27.763 21.639C27.763 21.639 27.763 21.6389 27.763 21.6389C27.763 21.6389 27.763 21.6388 27.763 21.6388C27.763 21.6388 27.763 21.6387 27.763 21.6387C27.763 21.6386 27.763 21.6386 27.763 21.6386C27.763 21.6385 27.763 21.6385 27.763 21.6384C27.763 21.6384 27.763 21.6384 27.763 21.6384C27.763 21.6383 27.763 21.6383 27.763 21.6383C27.763 21.6382 27.763 21.6382 27.763 21.6381C27.763 21.6381 27.763 21.6381 27.763 21.638C27.763 21.638 27.763 21.6379 27.763 21.6379C27.763 21.6379 27.763 21.6379 27.763 21.6378C27.763 21.6378 27.763 21.6378 27.763 21.6377C27.763 21.6377 27.763 21.6376 27.763 21.6376C27.763 21.6376 27.763 21.6375 27.763 21.6375C27.763 21.6375 27.763 21.6374 27.763 21.6374C27.763 21.6373 27.763 21.6373 27.763 21.6373C27.763 21.6373 27.763 21.6372 27.763 21.6372C27.763 21.6371 27.763 21.6371 27.763 21.6371C27.763 21.637 27.763 21.637 27.763 21.637C27.763 21.6369 27.763 21.6369 27.763 21.6368C27.763 21.6368 27.763 21.6368 27.763 21.6368C27.763 21.6367 27.763 21.6367 27.763 21.6367C27.763 21.6366 27.763 21.6366 27.763 21.6365C27.763 21.6365 27.763 21.6365 27.763 21.6364C27.763 21.6364 27.763 21.6363 27.763 21.6363C27.763 21.6363 27.763 21.6363 27.763 21.6362C27.763 21.6362 27.763 21.6362 27.763 21.6361C27.763 21.6361 27.763 21.636 27.763 21.636C27.763 21.636 27.763 21.6359 27.763 21.6359C27.763 21.6358 27.763 21.6358 27.763 21.6358C27.763 21.6358 27.763 21.6357 27.763 21.6357C27.763 21.6357 27.763 21.6356 27.763 21.6356C27.763 21.6355 27.763 21.6355 27.763 21.6355C27.763 21.6354 27.763 21.6354 27.763 21.6353C27.763 21.6353 27.763 21.6353 27.763 21.6352C27.763 21.6352 27.763 21.6352 27.763 21.6352C27.763 21.6351 27.763 21.6351 27.763 21.635C27.763 21.635 27.763 21.635 27.763 21.6349C27.763 21.6349 27.763 21.6348 27.763 21.6348C27.763 21.6348 27.763 21.6347 27.763 21.6347C27.763 21.6347 27.763 21.6347 27.763 21.6346C27.763 21.6346 27.763 21.6345 27.763 21.6345C27.763 21.6345 27.763 21.6344 27.763 21.6344C27.763 21.6344 27.763 21.6343 27.763 21.6343C27.763 21.6342 27.763 21.6342 27.763 21.6342C27.763 21.6341 27.763 21.6341 27.763 21.6341C27.763 21.6341 27.763 21.634 27.763 21.634C27.763 21.6339 27.763 21.6339 27.763 21.6339C27.763 21.6338 27.763 21.6338 27.763 21.6337C27.763 21.6337 27.763 21.6337 27.763 21.6336C27.763 21.6336 27.763 21.6336 27.763 21.6336C27.763 21.6335 27.763 21.6335 27.763 21.6334C27.763 21.6334 27.763 21.6334 27.763 21.6333C27.763 21.6333 27.763 21.6332 27.763 21.6332C27.763 21.6332 27.763 21.6331 27.763 21.6331C27.763 21.6331 27.763 21.6331 27.763 21.633C27.763 21.633 27.763 21.6329 27.763 21.6329C27.763 21.6329 27.763 21.6328 27.763 21.6328C27.763 21.6327 27.763 21.6327 27.763 21.6327C27.763 21.6326 27.763 21.6326 27.763 21.6326C27.763 21.6326 27.763 21.6325 27.763 21.6325C27.763 21.6324 27.763 21.6324 27.763 21.6324C27.763 21.6323 27.763 21.6323 27.763 21.6322C27.763 21.6322 27.763 21.6322 27.763 21.6321C27.763 21.6321 27.763 21.6321 27.763 21.632C27.763 21.632 27.763 21.632 27.763 21.6319C27.763 21.6319 27.763 21.6319 27.763 21.6318C27.763 21.6318 27.763 21.6318 27.763 21.6317C27.763 21.6317 27.763 21.6316 27.763 21.6316C27.763 21.6316 27.763 21.6315 27.763 21.6315C27.763 21.6315 27.763 21.6314 27.763 21.6314C27.763 21.6314 27.763 21.6313 27.763 21.6313C27.763 21.6313 27.763 21.6312 27.763 21.6312C27.763 21.6311 27.763 21.6311 27.763 21.6311C27.763 21.631 27.763 21.631 27.763 21.6309C27.763 21.6309 27.763 21.6309 27.763 21.6309C27.763 21.6308 27.763 21.6308 27.763 21.6308C27.763 21.6307 27.763 21.6307 27.763 21.6306C27.763 21.6306 27.763 21.6306 27.763 21.6305C27.763 21.6305 27.763 21.6304 27.763 21.6304C27.763 21.6304 27.763 21.6304 27.763 21.6303C27.763 21.6303 27.763 21.6303 27.763 21.6302C27.763 21.6302 27.763 21.6301 27.763 21.6301C27.763 21.6301 27.763 21.63 27.763 21.63C27.763 21.6299 27.763 21.6299 27.763 21.6299C27.763 21.6299 27.763 21.6298 27.763 21.6298C27.763 21.6298 27.763 21.6297 27.763 21.6297C27.763 21.6296 27.763 21.6296 27.763 21.6296C27.763 21.6295 27.763 21.6295 27.763 21.6295C27.763 21.6294 27.763 21.6294 27.763 21.6294C27.763 21.6293 27.763 21.6293 27.763 21.6293C27.763 21.6292 27.763 21.6292 27.763 21.6291C27.763 21.6291 27.763 21.6291 27.763 21.629C27.763 21.629 27.763 21.629 27.763 21.6289C27.763 21.6289 27.763 21.6288 27.763 21.6288C27.763 21.6288 27.763 21.6288 27.763 21.6287C27.763 21.6287 27.763 21.6287 27.763 21.6286C27.763 21.6286 27.763 21.6285 27.763 21.6285C27.763 21.6285 27.763 21.6284 27.763 21.6284C27.763 21.6283 27.763 21.6283 27.763 21.6283C27.763 21.6283 27.763 21.6282 27.763 21.6282C27.763 21.6282 27.763 21.6281 27.763 21.6281C27.763 21.628 27.763 21.628 27.763 21.628C27.763 21.6279 27.763 21.6279 27.763 21.6278C27.763 21.6278 27.763 21.6278 27.763 21.6277C27.763 21.6277 27.763 21.6277 27.763 21.6277C27.763 21.6276 27.763 21.6276 27.763 21.6275C27.763 21.6275 27.763 21.6275 27.763 21.6274C27.763 21.6274 27.763 21.6273 27.763 21.6273C27.763 21.6273 27.763 21.6272 27.763 21.6272C27.763 21.6272 27.763 21.6272 27.763 21.6271C27.763 21.6271 27.763 21.627 27.763 21.627C27.763 21.627 27.763 21.6269 27.763 21.6269C27.763 21.6268 27.763 21.6268 27.763 21.6268C27.763 21.6267 27.763 21.6267 27.763 21.6267C27.763 21.6267 27.763 21.6266 27.763 21.6266C27.763 21.6265 27.763 21.6265 27.763 21.6265C27.763 21.6264 27.763 21.6264 27.763 21.6264C27.763 21.6263 27.763 21.6263 27.763 21.6262C27.763 21.6262 27.763 21.6262 27.763 21.6262C27.763 21.6261 27.763 21.6261 27.763 21.6261C27.763 21.626 27.763 21.626 27.763 21.6259C27.763 21.6259 27.763 21.6259 27.763 21.6258C27.763 21.6258 27.763 21.6257 27.763 21.6257C27.763 21.6257 27.763 21.6256 27.763 21.6256C27.763 21.6256 27.763 21.6256 27.763 21.6255C27.763 21.6255 27.763 21.6254 27.763 21.6254C27.763 21.6254 27.763 21.6253 27.763 21.6253C27.763 21.6252 27.763 21.6252 27.763 21.6252C27.763 21.6251 27.763 21.6251 27.763 21.6251C27.763 21.6251 27.763 21.625 27.763 21.625C27.763 21.6249 27.763 21.6249 27.763 21.6249C27.763 21.6248 27.763 21.6248 27.763 21.6247C27.763 21.6247 27.763 21.6247 27.763 21.6246C27.763 21.6246 27.763 21.6245 27.763 21.6245C27.763 21.6245 27.763 21.6245 27.763 21.6244C27.763 21.6244 27.763 21.6244 27.763 21.6243C27.763 21.6243 27.763 21.6242 27.763 21.6242C27.763 21.6242 27.763 21.6241 27.763 21.6241C27.763 21.6241 27.763 21.624 27.763 21.624C27.763 21.624 27.763 21.6239 27.763 21.6239C27.763 21.6239 27.763 21.6238 27.763 21.6238C27.763 21.6238 27.763 21.6237 27.763 21.6237C27.763 21.6236 27.763 21.6236 27.763 21.6236C27.763 21.6235 27.763 21.6235 27.763 21.6235C27.763 21.6234 27.763 21.6234 27.763 21.6234C27.763 21.6233 27.763 21.6233 27.763 21.6233C27.763 21.6232 27.763 21.6232 27.763 21.6231C27.763 21.6231 27.763 21.6231 27.763 21.623C27.763 21.623 27.763 21.623 27.763 21.623C27.763 21.6229 27.763 21.6229 27.763 21.6228C27.763 21.6228 27.763 21.6228 27.763 21.6227C27.763 21.6227 27.763 21.6226 27.763 21.6226C27.763 21.6226 27.763 21.6225 27.763 21.6225C27.763 21.6224 27.763 21.6224 27.763 21.6224C27.763 21.6224 27.763 21.6223 27.763 21.6223C27.763 21.6223 27.763 21.6222 27.763 21.6222C27.763 21.6221 27.763 21.6221 27.763 21.6221C27.763 21.622 27.763 21.622 27.763 21.6219C27.763 21.6219 27.763 21.6219 27.763 21.6219C27.763 21.6218 27.763 21.6218 27.763 21.6218C27.763 21.6217 27.763 21.6217 27.763 21.6216C27.763 21.6216 27.763 21.6216 27.763 21.6215C27.763 21.6215 27.763 21.6215 27.763 21.6214C27.763 21.6214 27.763 21.6214 27.763 21.6213C27.763 21.6213 27.763 21.6213 27.763 21.6212C27.763 21.6212 27.763 21.6211 27.763 21.6211C27.763 21.6211 27.763 21.621 27.763 21.621C27.763 21.621 27.763 21.6209 27.763 21.6209C27.763 21.6208 27.763 21.6208 27.763 21.6208C27.763 21.6208 27.763 21.6207 27.763 21.6207C27.763 21.6207 27.763 21.6206 27.763 21.6206C27.763 21.6205 27.763 21.6205 27.763 21.6205C27.763 21.6204 27.763 21.6204 27.763 21.6203C27.763 21.6203 27.763 21.6203 27.763 21.6203C27.763 21.6202 27.763 21.6202 27.763 21.6202C27.763 21.6201 27.763 21.6201 27.763 21.62C27.763 21.62 27.763 21.62 27.763 21.6199C27.763 21.6199 27.763 21.6198 27.763 21.6198C27.763 21.6198 27.763 21.6197 27.763 21.6197C27.763 21.6197 27.763 21.6197 27.763 21.6196C27.763 21.6196 27.763 21.6195 27.763 21.6195C27.763 21.6195 27.763 21.6194 27.763 21.6194C27.763 21.6193 27.763 21.6193 27.763 21.6193C27.763 21.6192 27.763 21.6192 27.763 21.6192C27.763 21.6192 27.763 21.6191 27.763 21.6191C27.763 21.619 27.763 21.619 27.763 21.619C27.763 21.6189 27.763 21.6189 27.763 21.6188C27.763 21.6188 27.763 21.6188 27.763 21.6187C27.763 21.6187 27.763 21.6187 27.763 21.6187C27.763 21.6186 27.763 21.6186 27.763 21.6185C27.763 21.6185 27.763 21.6185 27.763 21.6184C27.763 21.6184 27.763 21.6184 27.763 21.6183C27.763 21.6183 27.763 21.6182 27.763 21.6182C27.763 21.6182 27.763 21.6182 27.763 21.6181C27.763 21.6181 27.763 21.6181 27.763 21.618C27.763 21.618 27.763 21.6179 27.763 21.6179C27.763 21.6179 27.763 21.6178 27.763 21.6178C27.763 21.6177 27.763 21.6177 27.763 21.6177C27.763 21.6176 27.763 21.6176 27.763 21.6176C27.763 21.6176 27.763 21.6175 27.763 21.6175C27.763 21.6174 27.763 21.6174 27.763 21.6174C27.763 21.6173 27.763 21.6173 27.763 21.6172C27.763 21.6172 27.763 21.6172 27.763 21.6171C27.763 21.6171 27.763 21.6171 27.763 21.6171C27.763 21.617 27.763 21.617 27.763 21.6169C27.763 21.6169 27.763 21.6169 27.763 21.6168C27.763 21.6168 27.763 21.6167 27.763 21.6167C27.763 21.6167 27.763 21.6166 27.763 21.6166C27.763 21.6166 27.763 21.6165 27.763 21.6165C27.763 21.6165 27.763 21.6164 27.763 21.6164C27.763 21.6164 27.763 21.6163 27.763 21.6163C27.763 21.6162 27.763 21.6162 27.763 21.6162C27.763 21.6161 27.763 21.6161 27.763 21.6161C27.763 21.616 27.763 21.616 27.763 21.616C27.763 21.6159 27.763 21.6159 27.763 21.6159C27.763 21.6158 27.763 21.6158 27.763 21.6158C27.763 21.6157 27.763 21.6157 27.763 21.6156C27.763 21.6156 27.763 21.6156 27.763 21.6155C27.763 21.6155 27.763 21.6155 27.763 21.6154C27.763 21.6154 27.763 21.6154 27.763 21.6153C27.763 21.6153 27.763 21.6153 27.763 21.6152C27.763 21.6152 27.763 21.6151 27.763 21.6151C27.763 21.6151 27.763 21.615 27.763 21.615C27.763 21.6149 27.763 21.615 27.763 21.6149C27.763 21.6149 27.763 21.6148 27.763 21.6148C27.763 21.6148 27.763 21.6147 27.763 21.6147C27.763 21.6146 27.763 21.6146 27.763 21.6146C27.763 21.6145 27.763 21.6145 27.763 21.6144C27.763 21.6144 27.763 21.6144 27.763 21.6144C27.763 21.6143 27.763 21.6143 27.763 21.6143C27.763 21.6142 27.763 21.6142 27.763 21.6141C27.763 21.6141 27.763 21.6141 27.763 21.614C27.763 21.614 27.763 21.6139 27.763 21.6139C27.763 21.6139 27.763 21.6139 27.763 21.6138C27.763 21.6138 27.763 21.6138 27.763 21.6137H27.6716ZM27.7173 21.6229H25.7589V21.7143H27.7173V21.6229ZM25.7135 21.6635C25.7023 21.7641 25.6967 21.8682 25.6967 21.9758H25.7882C25.7882 21.8713 25.7936 21.7706 25.8044 21.6736L25.7135 21.6635ZM27.39 21.6242C27.3863 21.269 27.318 20.9973 27.1773 20.8176L27.1053 20.8739C27.2279 21.0305 27.295 21.2782 27.2986 21.6251L27.39 21.6242ZM27.1773 20.8176C27.0373 20.6386 26.8541 20.5477 26.6311 20.5477V20.6391C26.8252 20.6391 26.9821 20.7164 27.1053 20.8739L27.1773 20.8176ZM26.6311 20.5477C26.4074 20.5477 26.2092 20.6465 26.0376 20.8371L26.1056 20.8982C26.2632 20.7231 26.438 20.6391 26.6311 20.6391V20.5477ZM26.0373 20.8374C25.8688 21.029 25.7638 21.2907 25.7191 21.6185L25.8097 21.6309C25.8528 21.315 25.9526 21.072 26.1059 20.8979L26.0373 20.8374ZM25.7644 21.6704H27.3443V21.579H25.7644V21.6704Z" fill="#B39558"/>
<path d="M31.9543 16C31.9543 7.18869 24.8113 0.0457153 16 0.0457153C7.18869 0.0457153 0.0457153 7.18869 0.0457153 16C0.0457153 24.8113 7.18869 31.9543 16 31.9543C24.8113 31.9543 31.9543 24.8113 31.9543 16Z" stroke="#D5AB60" stroke-width="0.2"/>
</g>
<defs>
<clipPath id="clip0_701_48">
<rect width="32" height="32" fill="white"/>
</clipPath>
</defs>
</svg>
